<?xml version="1.0" encoding="UTF-8" standalone="no"?>
<svg
   version="1.1"
   id="Layer_1"
   x="0px"
   y="0px"
   viewBox="0 0 3106.2717 2126.9741"
   xml:space="preserve"
   sodipodi:docname="sleeping-koala.svg"
   width="3106.2717"
   height="2126.9741"
   inkscape:version="1.3.2 (091e20e, 2023-11-25)"
   xmlns:inkscape="http://www.inkscape.org/namespaces/inkscape"
   xmlns:sodipodi="http://sodipodi.sourceforge.net/DTD/sodipodi-0.dtd"
   xmlns="http://www.w3.org/2000/svg"
   xmlns:svg="http://www.w3.org/2000/svg"><defs
   id="defs147" /><sodipodi:namedview
   id="namedview147"
   pagecolor="#e0e0e0"
   bordercolor="#000000"
   borderopacity="0.25"
   inkscape:showpageshadow="2"
   inkscape:pageopacity="0.0"
   inkscape:pagecheckerboard="false"
   inkscape:deskcolor="#d1d1d1"
   inkscape:clip-to-page="false"
   inkscape:zoom="0.13108162"
   inkscape:cx="2322.9801"
   inkscape:cy="1174.8405"
   inkscape:window-width="1680"
   inkscape:window-height="933"
   inkscape:window-x="0"
   inkscape:window-y="25"
   inkscape:window-maximized="1"
   inkscape:current-layer="g147" />
<g
   id="g147"
   transform="translate(-464.97907,-782.47478)">
	<g
   id="g1">
		<rect
   style="display:inline;opacity:0;fill:#3d3daa"
   width="4000"
   height="4000"
   id="rect1"
   x="0"
   y="0" />
	</g>
	<g
   id="g146">
		<g
   id="g141">
			<g
   id="g2">
				<path
   style="fill:#a3b1b8"
   d="m 2333.535,2307.686 c 124.673,5.998 203.736,-50.153 238.673,71.642 5.685,19.819 5.338,48.038 20.865,92.68 36.002,103.507 189.549,127.345 266.879,83.703 147.026,-82.975 -30.57,-219.084 -30.57,-219.084 0,0 53.861,-371.205 -310.025,-234.314"
   id="path1" />
				<path
   style="fill:#171717"
   d="m 2770.559,2579.068 c -28.079,0 -57.158,-4.98 -83.862,-15.068 -47.715,-18.022 -81.804,-50.4 -95.984,-91.172 -10.088,-28.999 -13.489,-50.884 -16.221,-68.462 -1.455,-9.37 -2.712,-17.461 -4.688,-24.351 -24.661,-85.952 -71.599,-81.245 -142.651,-74.082 -27.62,2.773 -58.928,5.938 -93.738,4.248 -1.379,-0.063 -2.444,-1.235 -2.378,-2.617 0.068,-1.377 1.299,-2.52 2.617,-2.373 34.446,1.631 65.554,-1.475 92.998,-4.233 70.923,-7.144 122.151,-12.28 147.957,77.681 2.063,7.188 3.342,15.425 4.824,24.961 2.7,17.378 6.062,39.014 16.001,67.588 13.687,39.346 46.724,70.645 93.027,88.135 57.334,21.65 125.754,19.326 170.261,-5.791 35.647,-20.117 54.758,-45.098 56.804,-74.253 4.839,-68.931 -86.741,-139.956 -87.666,-140.669 -0.718,-0.547 -1.084,-1.445 -0.952,-2.339 0.229,-1.597 22.136,-160.469 -63.765,-229.565 -52.51,-42.251 -134.233,-42.939 -242.905,-2.051 -1.294,0.503 -2.737,-0.166 -3.22,-1.46 -0.488,-1.289 0.166,-2.734 1.458,-3.218 110.449,-41.558 193.823,-40.601 247.815,2.842 83.643,67.295 67.783,216.357 65.754,232.715 11.245,8.857 93.252,75.952 88.469,144.097 -2.17,30.933 -22.134,57.261 -59.336,78.257 -24.899,14.051 -57.04,21.18 -90.619,21.18 z"
   id="path2" />
			</g>
			<g
   id="g4">
				<path
   style="fill:#a3b1b8"
   d="m 2859.961,2555.722 c -60.454,34.095 -167.507,26.998 -228.562,-27.223 -17.047,-15.095 -30.49,-33.907 -38.338,-56.474 -15.508,-44.646 -15.17,-72.883 -20.84,-92.709 -34.958,-121.772 -113.999,-65.636 -238.7,-71.644 l 185.831,-205.356 c 101.533,-38.188 170.548,-36.836 217.297,-15.02 120.72,56.399 92.747,249.326 92.747,249.326 0,0 177.57,136.116 30.565,219.1 z"
   id="path3" />
				<path
   style="fill:#171717"
   d="m 2769.97,2578.765 c -49.292,0 -102.551,-14.937 -140.232,-48.398 -18.247,-16.157 -31.382,-35.508 -39.038,-57.52 -10.081,-29.019 -13.477,-50.913 -16.206,-68.506 -1.453,-9.365 -2.708,-17.451 -4.675,-24.336 -24.673,-85.933 -71.614,-81.206 -142.654,-74.082 -27.625,2.778 -58.943,5.928 -93.762,4.243 -0.967,-0.044 -1.819,-0.645 -2.19,-1.538 -0.371,-0.893 -0.193,-1.919 0.457,-2.637 l 185.83,-205.356 c 0.266,-0.293 0.601,-0.522 0.974,-0.659 92.322,-34.722 166.082,-39.751 219.233,-14.946 115.435,53.931 96.577,232.485 94.353,250.498 11.243,8.857 93.24,75.962 88.457,144.106 -2.17,30.938 -22.131,57.271 -59.329,78.267 v 0 c -23.925,13.491 -56.594,20.864 -91.218,20.864 z m -292.78,-281.333 c 44.966,0 78.228,14.287 97.434,81.196 2.056,7.188 3.333,15.415 4.812,24.946 2.698,17.393 6.057,39.038 15.986,67.632 7.371,21.187 20.034,39.834 37.634,55.42 62.573,55.571 169.155,58.799 225.676,26.919 v 0 c 35.642,-20.117 54.751,-45.103 56.797,-74.258 4.836,-68.94 -86.729,-139.971 -87.654,-140.684 -0.718,-0.547 -1.084,-1.445 -0.952,-2.339 0.276,-1.914 26.304,-191.743 -91.331,-246.704 -51.785,-24.17 -124.043,-19.16 -214.792,14.883 l -181.846,200.952 c 32.354,1.104 61.677,-1.831 87.71,-4.443 18.165,-1.826 35.042,-3.52 50.526,-3.52 z m 382.771,258.291 h 0.049 z"
   id="path4" />
			</g>
			<g
   style="opacity:0.6"
   id="g5">
				<path
   style="fill:#e0e0e0"
   d="m 2897.285,2526.734 c 0.254,-115.441 -86.213,-157.144 -86.213,-157.144 0,0 27.974,-192.927 -92.747,-249.326 -46.749,-21.816 -115.764,-23.168 -217.297,15.02 l -156.317,172.726 c -3.68,-0.038 -7.435,-0.15 -11.19,-0.338 l 185.831,-205.356 c 101.533,-38.188 170.548,-36.836 217.297,-15.02 120.72,56.399 92.747,249.326 92.747,249.326 0,0 140.735,107.879 67.889,190.112 z"
   id="path5" />
			</g>
			<g
   id="g6">
				<path
   style="fill:#171717"
   d="m 2770.429,2591.514 c -29.587,0 -60.144,-5.22 -88.157,-15.801 -51.248,-19.355 -87.964,-54.434 -103.386,-98.77 -10.459,-30.073 -14.104,-53.53 -16.765,-70.659 -1.392,-8.95 -2.593,-16.685 -4.351,-22.817 -21.772,-75.898 -57.725,-72.275 -129.365,-65.078 -28.052,2.822 -59.834,6.025 -95.593,4.297 -8.284,-0.396 -14.678,-7.437 -14.28,-15.723 0.398,-8.286 7.471,-14.746 15.725,-14.277 33.499,1.606 64.126,-1.475 91.143,-4.185 71.106,-7.168 132.549,-13.345 161.245,86.685 2.278,7.944 3.613,16.538 5.159,26.489 2.625,16.885 5.889,37.896 15.457,65.396 12.444,35.781 42.854,64.385 85.625,80.537 53.208,20.103 118.875,18.062 159.683,-4.98 31.741,-17.91 48.718,-39.507 50.469,-64.185 4.402,-62.124 -81.926,-129.229 -82.8,-129.902 -4.307,-3.311 -6.499,-8.696 -5.718,-14.072 0.217,-1.519 21.023,-153.54 -59.275,-218.057 -48.821,-39.219 -126.406,-39.238 -230.598,-0.039 -7.754,2.92 -16.423,-1.006 -19.346,-8.77 -2.92,-7.764 1.006,-16.426 8.77,-19.346 114.89,-43.228 202.388,-41.606 260.071,4.805 82.563,66.431 74.81,201.396 71.135,237.109 22.551,18.916 92.439,83.228 87.729,150.332 -2.483,35.391 -24.58,65.093 -65.671,88.286 -26.708,15.074 -61.097,22.725 -96.906,22.725 z"
   id="path6" />
			</g>
			<g
   id="g7">
				<path
   style="fill:#171717"
   d="m 2802.311,2380.491 c 2.175,-8.733 4.459,-16.484 6.15,-24.089 0.88,-3.784 1.499,-7.537 2.454,-11.111 0.995,-3.577 1.895,-7.104 3.65,-10.564 l 0.244,-0.481 c 2.562,-5.049 8.734,-7.065 13.784,-4.502 3.441,1.746 5.472,5.183 5.608,8.784 0.165,4.702 -1.036,9.233 -2.642,13.555 -1.646,4.324 -4.126,8.303 -6.803,12.034 -5.422,7.429 -12.089,13.818 -20.201,18.145 -0.76,0.405 -1.705,0.117 -2.111,-0.645 -0.188,-0.352 -0.222,-0.765 -0.133,-1.126 z"
   id="path7" />
			</g>
			<g
   style="opacity:0.3"
   id="g8">
				<path
   style="fill:#171717"
   d="m 2746.826,2375.26 c 0,0 -23.243,69.616 -115.426,153.238 -17.047,-15.095 -30.49,-33.907 -38.338,-56.474 -15.508,-44.646 -15.17,-72.883 -20.84,-92.709 -34.958,-121.772 -113.999,-65.636 -238.7,-71.644 l 185.831,-205.356 c 8.885,-3.342 17.522,-6.381 25.917,-9.13 106.998,-35.041 216.631,44.928 215.288,157.51 -0.853,71.423 -13.732,124.565 -13.732,124.565 z"
   id="path8" />
			</g>
			<g
   id="g10">
				<path
   style="fill:#a3b1b8"
   d="m 2602.712,2457.493 c 0,0 -139.157,146.479 -498.916,121.021 -222.479,-15.771 -462.342,-194.279 -462.342,-194.279 L 2068.2,1978.103 c 0,0 65.749,-35.521 154.252,-65.26 26.097,-8.824 54.221,-17.084 83.171,-23.844 59.666,-13.855 123.086,-21.103 180.574,-12.504 38.338,5.745 74.084,18.55 104.312,41.117 93.234,69.653 125.339,153.238 126.803,233.631 2.967,159.471 -114.6,306.25 -114.6,306.25 z"
   id="path9" />
				<path
   style="fill:#171717"
   d="m 2184.948,2583.951 c -25.776,0 -52.866,-0.928 -81.328,-2.939 -220.657,-15.645 -461.252,-192.983 -463.657,-194.771 -0.593,-0.439 -0.959,-1.118 -1.003,-1.855 -0.044,-0.737 0.237,-1.455 0.771,-1.963 l 426.746,-406.133 c 0.161,-0.151 0.342,-0.283 0.535,-0.386 0.659,-0.357 66.951,-35.962 154.644,-65.43 28.149,-9.517 56.211,-17.563 83.398,-23.911 68.979,-16.016 130.056,-20.239 181.511,-12.539 41.294,6.187 76.77,20.181 105.439,41.587 83.088,62.075 126.089,141.338 127.808,235.586 2.949,158.54 -113.967,306.382 -115.149,307.856 -0.044,0.054 -0.09,0.107 -0.139,0.161 -1.287,1.353 -122.242,124.737 -419.576,124.737 z M 1645.349,2383.98 c 25.684,18.545 251.228,177.339 458.623,192.041 351.357,24.878 493.032,-116.26 496.858,-120.181 3.408,-4.307 116.868,-149.414 113.982,-304.551 -1.687,-92.627 -44.014,-170.571 -125.801,-231.675 -28,-20.903 -62.717,-34.58 -103.186,-40.649 -50.828,-7.593 -111.27,-3.408 -179.636,12.471 -27.029,6.309 -54.934,14.307 -82.937,23.774 -84.333,28.34 -148.708,62.339 -153.572,64.937 z m 957.363,73.511 h 0.049 z"
   id="path10" />
			</g>
			<g
   style="opacity:0.3"
   id="g11">
				<path
   style="fill:#171717"
   d="m 2602.712,2457.493 c 0,0 -139.157,146.479 -498.916,121.021 -222.479,-15.771 -462.342,-194.279 -462.342,-194.279 l 54.333,-51.705 c 92.408,33.457 262.469,87.94 414.505,98.717 359.759,25.458 492.42,-114.337 492.42,-114.337 0,0 114.676,-48.678 106.978,-227.473 4.881,20.615 7.247,41.304 7.622,61.806 2.967,159.471 -114.6,306.25 -114.6,306.25 z"
   id="path11" />
			</g>
			<g
   id="g12">
				<path
   style="fill:#e0e0e0"
   d="m 2717.312,2151.242 c -61.58,75.624 -180.611,98.266 -287.176,48.513 -122.748,-57.3 -182.489,-188.948 -133.412,-294.085 2.703,-5.745 5.632,-11.302 8.899,-16.672 99.468,-23.093 209.299,-27.824 284.886,28.613 93.234,69.654 125.339,153.238 126.803,233.631 z"
   id="path12" />
			</g>
			<g
   id="g13">
				<path
   style="fill:#171717"
   d="m 2186.675,2596.534 c -26.582,0 -54.517,-0.957 -83.955,-3.042 -224.272,-15.879 -460.295,-189.829 -470.232,-197.227 -3.555,-2.642 -5.757,-6.719 -6.025,-11.138 -0.266,-4.424 1.431,-8.735 4.639,-11.787 l 426.758,-406.104 c 0.964,-0.918 2.043,-1.704 3.213,-2.334 14.636,-7.915 360.566,-192.202 538.44,-59.326 75.862,56.665 119.719,127.646 130.359,210.967 22.449,175.815 -109.775,343.276 -115.415,350.322 -0.264,0.327 -0.542,0.649 -0.835,0.957 -5.407,5.689 -126.081,128.712 -426.947,128.712 z M 1665.029,2382.52 c 54.922,37.969 255.171,167.935 439.81,181.011 337.749,23.916 478,-107.559 486.619,-116.016 8.44,-10.85 128.875,-169.126 108.599,-327.3 -9.6,-74.878 -49.475,-138.994 -118.523,-190.576 -156.558,-116.948 -478.003,46.934 -504.468,60.786 z"
   id="path13" />
			</g>
			<g
   id="g15">
				<path
   style="fill:#dd8e58"
   d="m 1063.298,2325.919 c 0,0 -311.873,151.221 -311.446,182.069 0.427,30.848 398.694,-115.35 398.694,-115.35"
   id="path14" />
				<path
   style="fill:#171717"
   d="m 761.782,2514.532 c -4.651,0 -8.005,-0.596 -9.866,-1.875 -1.65,-1.138 -2.537,-2.739 -2.563,-4.634 -0.437,-31.528 280.786,-168.804 312.854,-184.355 1.248,-0.605 2.737,-0.078 3.34,1.162 0.603,1.24 0.085,2.734 -1.157,3.34 -124.788,60.508 -310.335,158.32 -310.037,179.785 0.002,0.151 0.005,0.313 0.396,0.581 1.396,0.962 3.979,1.416 7.612,1.416 44.741,0.01 249.912,-69.219 387.324,-119.663 1.311,-0.464 2.734,0.19 3.208,1.489 0.476,1.294 -0.188,2.729 -1.484,3.208 -35.425,13.003 -327.579,119.546 -389.627,119.546 z"
   id="path15" />
			</g>
			<g
   id="g16">
				<path
   style="fill:#59421d"
   d="m 1150.55,2392.618 -34.394,-26.288 -52.852,-40.446 c 0,0 -155.349,75.287 -246.606,130.497 -38.025,23.011 -64.984,42.551 -64.851,51.607 0.455,30.838 398.703,-115.37 398.703,-115.37 z"
   id="path16" />
			</g>
			<g
   style="opacity:0.3"
   id="g17">
				<path
   style="fill:#171717"
   d="m 1150.536,2392.608 c 0,0 -398.246,146.217 -398.697,115.388 -0.112,-8.448 23.468,-26.134 57.638,-47.199 67.476,-12.692 220.488,-65.26 305.462,-95.375 l 1.202,0.901 z"
   id="path17" />
			</g>
			<g
   id="g18">
				<path
   style="fill:#171717"
   d="m 761.25,2527.334 c -10.088,0 -13.501,-2.349 -16.431,-4.365 -4.993,-3.433 -7.903,-8.818 -7.983,-14.771 -0.169,-11.997 -0.396,-28.423 163.496,-116.06 77.283,-41.323 155.63,-79.355 156.414,-79.736 7.451,-3.604 16.448,-0.503 20.068,6.963 3.618,7.466 0.5,16.45 -6.963,20.068 -114.978,55.752 -237.839,121.538 -284.688,155.015 62.632,-12.656 218.557,-63.911 360.208,-115.913 7.781,-2.856 16.416,1.138 19.275,8.926 2.859,7.788 -1.135,16.416 -8.923,19.277 -0.93,0.337 -94.031,34.478 -189.165,65.947 -134.456,44.483 -184.324,54.649 -205.308,54.649 z"
   id="path18" />
			</g>
			<g
   id="g19">
				<path
   style="fill:#59421d"
   d="m 3030.958,2616.049 c 0,0 276.729,285.605 308.395,277.968 31.666,-7.637 -273.311,-383.305 -273.311,-383.305"
   id="path19" />
			</g>
			<g
   style="opacity:0.3"
   id="g20">
				<path
   style="fill:#171717"
   d="m 3066.037,2510.685 -35.07,105.373 c 0,0 276.689,285.587 308.368,277.983 9.213,-2.201 -9.965,-35.445 -41.8,-81.425 -91.988,-81.891 -222.281,-216.404 -222.281,-216.404 l 17.458,-52.413 c -16.452,-20.541 -26.675,-33.114 -26.675,-33.114 z"
   id="path20" />
			</g>
			<g
   id="g21">
				<path
   style="fill:#171717"
   d="m 3337.156,2909.449 c -13.445,0 -43.958,-15.2 -174.294,-140.732 -72.49,-69.819 -141.997,-141.499 -142.69,-142.217 -5.774,-5.957 -5.623,-15.464 0.334,-21.235 5.962,-5.776 15.471,-5.62 21.238,0.337 102.698,105.986 218.228,217.041 271.34,257.676 -38.254,-62.607 -150.754,-210.127 -258.701,-343.096 -5.229,-6.44 -4.246,-15.898 2.192,-21.128 6.448,-5.225 15.903,-4.243 21.128,2.192 0.715,0.884 72.3,89.116 141.729,179.868 145.061,189.604 139.937,204.756 136.194,215.82 -1.982,5.869 -6.75,10.234 -12.751,11.68 -1.686,0.41 -3.464,0.835 -5.719,0.835 z"
   id="path21" />
			</g>
			<g
   id="g22">
				<path
   style="fill:#59421d"
   d="m 3307.084,2483.211 c 4.885,3.595 4.605,10.982 -0.728,13.871 -1021.528,553.501 -2288.074,-97.172 -2510.298,-295.504 -11.103,-9.846 -17.433,-23.913 -17.433,-38.733 0,-30.545 25.068,-51.996 51.946,-51.996 9.746,0 19.743,2.813 28.887,9.043 339.102,230.64 1422.519,643.59 2450.878,120.72 -22.807,12.76 -39.838,62.696 -39.838,122.328 0,56.757 15.431,104.704 36.586,120.271 z"
   id="path22" />
			</g>
			<g
   style="opacity:0.5"
   id="g23">
				<path
   style="fill:#e0e0e0"
   d="m 3276.545,2303.896 c -1018.159,496.998 -2081.683,90.578 -2417.068,-137.55 -9.143,-6.229 -19.141,-9.043 -28.886,-9.043 -19.342,0 -37.678,11.103 -46.52,28.635 -3.517,-7.134 -5.426,-15.021 -5.426,-23.11 0,-30.544 25.068,-51.996 51.946,-51.996 9.746,0 19.743,2.814 28.886,9.043 339.102,230.64 1422.52,643.59 2450.877,120.72 -14.668,8.191 -26.926,31.702 -33.809,63.301 z"
   id="path23" />
			</g>
			<g
   style="opacity:0.3"
   id="g24">
				<path
   style="fill:#171717"
   d="m 796.077,2171.563 c 221.497,197.71 1480.71,844.841 2500.533,300.667 -9.552,-13.23 -17.186,-33.701 -21.672,-58.413 -1325.7,519.083 -2342.582,-162.662 -2480.349,-243.724 0.501,0.483 0.963,1.003 1.488,1.47 z"
   id="path24" />
			</g>
			<g
   style="opacity:0.35"
   id="g26">
				<g
   id="g25">
					<path
   style="fill:#171717"
   d="m 987.574,2235.178 c 20.487,13.479 41.99,25.774 63.586,37.644 21.646,11.841 43.622,23.083 65.815,33.875 22.191,10.793 44.584,21.177 67.205,31.042 22.535,10.056 45.338,19.504 68.204,28.782 91.653,36.694 185.697,67.197 280.952,93.013 95.342,25.52 192.081,45.898 289.519,61.423 97.413,15.566 195.894,24.084 294.506,28.408 197.267,8.223 395.61,-2.961 590.677,-34.287 97.478,-15.837 194.175,-37.068 288.459,-65.959 47.056,-14.663 93.535,-31.096 138.77,-50.22 22.563,-9.683 44.751,-20.151 66.432,-31.433 21.693,-11.252 42.813,-23.491 62.939,-36.973 l 0.054,-0.037 c 5.739,-3.845 13.508,-2.307 17.352,3.43 3.845,5.74 2.308,13.511 -3.43,17.354 -0.223,0.151 -0.48,0.308 -0.709,0.442 -43.763,25.259 -89.421,45.906 -136.05,63.508 -46.498,17.925 -93.916,32.993 -141.753,46.238 -95.685,26.484 -192.931,46.306 -290.778,61.714 -48.926,7.737 -98.04,14.231 -147.28,19.521 -24.623,2.622 -49.269,5.034 -73.947,7.058 -24.663,2.202 -49.354,4.111 -74.067,5.693 -98.844,6.384 -198.014,8.335 -297.086,5.212 -99.07,-3.059 -198.018,-11.931 -296.078,-27.034 -48.979,-7.859 -97.692,-16.997 -146.133,-27.556 -48.441,-10.5 -96.655,-22.087 -144.46,-35.208 -95.637,-26.118 -189.734,-57.922 -281.438,-95.583 -45.815,-18.911 -91.031,-39.314 -135.228,-61.765 -22.119,-11.182 -44.012,-22.813 -65.575,-35.044 -21.552,-12.288 -42.843,-24.888 -63.469,-38.918 -1.206,-0.82 -1.518,-2.463 -0.698,-3.669 0.813,-1.194 2.43,-1.511 3.633,-0.723 z"
   id="path25" />
				</g>
			</g>
			<g
   id="g27">
				<path
   style="fill:#171717"
   d="m 2398.86,2729.849 c -241.345,0 -465.959,-37.646 -651.042,-84.014 -456.965,-114.478 -837.502,-322.153 -961.758,-433.052 -14.255,-12.637 -22.454,-30.85 -22.454,-49.937 0,-36.953 30.042,-67.017 66.965,-67.017 13.245,0 26.16,4.028 37.344,11.65 170.354,115.864 524.199,274.57 960.752,340.488 366.062,55.269 919.08,61.851 1474.863,-220.747 7.288,-3.711 16.204,-0.894 20.056,6.318 3.852,7.212 1.223,16.182 -5.916,20.176 -15.806,8.848 -32.153,52.119 -32.153,109.224 0,55.698 15.701,97.305 30.471,108.179 6.528,4.805 10.093,12.471 9.536,20.508 -0.547,7.91 -5.039,14.888 -12.019,18.662 -302.245,163.771 -620.844,219.562 -914.645,219.562 z M 830.571,2125.87 c -17.759,0 -36.926,14.136 -36.926,36.978 0,10.498 4.512,20.518 12.378,27.49 95.872,85.566 453.95,302.319 949.097,426.362 403.064,100.972 995.723,160.229 1535.464,-128.188 -21.57,-22.93 -35.105,-70.469 -35.105,-125.571 0,-31.895 4.583,-61.226 12.603,-84.722 -227.168,108.823 -470.796,179.907 -724.998,211.455 -232.871,28.896 -474.746,24.863 -718.901,-12.002 -441.541,-66.675 -800.2,-227.71 -973.171,-345.361 -6.278,-4.278 -13.151,-6.441 -20.441,-6.441 z m 2467.612,369.443 h 0.051 z m -0.031,-0.024 c 0.01,0 0.02,0.015 0.029,0.02 v 0 c -0.01,-0.01 -0.022,-0.016 -0.029,-0.02 z"
   id="path26" />
			</g>
			<g
   id="g28">
				<path
   style="fill:#654a21"
   d="m 3373.434,2362.941 c 0,69.377 -23.058,125.593 -51.493,125.593 -28.384,0 -51.443,-56.216 -51.443,-125.593 0,-59.632 17.031,-109.567 39.838,-122.328 0.754,-0.402 1.557,-0.804 2.311,-1.206 0.05,-0.05 0.1,-0.05 0.15,-0.05 2.964,-1.357 6.029,-2.01 9.143,-2.01 28.435,10e-4 51.494,56.217 51.494,125.594 z"
   id="path27" />
			</g>
			<g
   style="opacity:0.35"
   id="g29">
				<path
   style="fill:#171717"
   d="m 3373.453,2362.926 c 0,69.378 -23.059,125.593 -51.493,125.593 -28.384,0 -51.443,-56.215 -51.443,-125.593 0,-13.062 0.803,-25.622 2.311,-37.477 6.581,51.091 26.073,88.116 49.132,88.116 23.059,0 42.601,-37.025 49.182,-88.116 1.508,11.805 2.311,24.414 2.311,37.477 z"
   id="path28" />
			</g>
			<g
   id="g30">
				<path
   style="fill:#171717"
   d="m 3321.941,2503.555 c -43.633,0 -66.462,-70.737 -66.462,-140.615 0,-65.103 19.099,-119.526 47.524,-135.435 l 2.603,-1.362 v 0.01 c 0.442,-0.234 0.894,-0.444 1.355,-0.635 4.761,-2.114 9.797,-3.184 14.978,-3.184 43.665,0 66.511,70.737 66.511,140.61 0,69.879 -22.847,140.616 -66.511,140.616 z m -2.957,-250.513 -1.589,0.825 c -15.53,8.696 -31.877,51.968 -31.877,109.072 0,66.475 21.924,110.576 36.423,110.576 14.519,0 36.472,-44.102 36.472,-110.576 0,-66.47 -21.953,-110.571 -36.472,-110.571 -1.013,0 -1.931,0.205 -2.888,0.645 -0.022,0.01 -0.047,0.02 -0.069,0.029 z"
   id="path29" />
			</g>
			<g
   style="opacity:0.3"
   id="g33">
				<g
   id="g31">
					<path
   style="fill:#171717"
   d="m 2868.893,2612.253 c 9.137,0.527 18.713,0 28.032,-1.025 9.365,-1.021 18.688,-2.571 27.867,-4.722 18.352,-4.326 36.229,-10.605 53.175,-18.777 16.903,-8.276 32.784,-18.481 47.411,-30.193 7.236,-5.95 14.335,-12.068 20.897,-18.745 l 10.3,-10.125 c 3.541,-3.352 7.197,-6.587 10.878,-9.788 29.807,-25.32 64.658,-43.928 100.834,-58.164 18.131,-7.124 36.754,-12.905 55.614,-17.837 19.004,-4.919 37.734,-8.784 57.953,-11.335 6.862,-0.867 13.125,3.992 13.992,10.854 0.865,6.86 -3.994,13.123 -10.854,13.989 -0.389,0.049 -0.776,0.081 -1.16,0.093 l -0.371,0.012 c -8.676,0.269 -18.239,1.16 -27.377,2.302 -9.237,1.147 -18.466,2.59 -27.649,4.304 -18.357,3.484 -36.515,8.147 -54.297,13.933 -35.604,11.418 -69.542,28.347 -99.104,51.147 -3.643,2.908 -7.269,5.847 -10.791,8.904 l -10.521,9.512 c -7.095,6.658 -14.719,12.725 -22.462,18.579 -7.822,5.767 -15.959,11.077 -24.301,16.021 -8.4,4.851 -17.043,9.243 -25.861,13.23 -17.614,8.018 -36.093,14.05 -54.973,18.064 -18.916,4.05 -38.032,6.357 -57.686,5.713 -1.647,-0.054 -2.937,-1.433 -2.883,-3.079 0.054,-1.646 1.432,-2.937 3.079,-2.883 0.02,0 0.04,0 0.06,0 z"
   id="path30" />
				</g>
				<g
   id="g32">
					<path
   style="fill:#171717"
   d="m 1808.988,2575.906 c 55.913,11.506 112.074,21.382 168.467,29.473 l 42.358,5.557 42.457,4.639 c 14.125,1.765 28.341,2.671 42.502,4.05 14.164,1.394 28.363,2.341 42.565,3.232 14.194,0.977 28.39,1.917 42.611,2.402 14.215,0.54 28.416,1.421 42.642,1.565 14.222,0.225 28.433,0.894 42.655,0.906 14.222,0.015 28.442,0.21 42.661,0.078 56.88,-0.488 113.722,-3.296 170.376,-8.157 56.644,-4.976 113.081,-12.283 169.086,-22.019 56.016,-9.675 111.547,-22.109 166.207,-37.485 27.279,-7.839 54.358,-16.37 80.935,-26.128 13.307,-4.834 26.41,-10.144 39.335,-15.745 6.458,-2.803 12.817,-5.793 19.109,-8.848 l 9.321,-4.746 9.67,-5.088 c 26.04,-13.137 53.833,-23.364 82.742,-28.484 28.707,-5.039 59.06,-6.204 86.937,4.214 0.653,0.244 0.984,0.972 0.74,1.624 -0.186,0.498 -0.652,0.808 -1.152,0.82 h -0.109 c -7.122,0.144 -14.242,0.767 -21.239,1.099 -7.023,0.535 -13.987,1.282 -20.916,1.97 -13.853,1.44 -27.642,3.171 -41.23,6.089 -27.179,5.63 -53.787,14.346 -78.912,26.492 l -19.136,9.646 c -6.552,3.159 -13.126,6.223 -19.767,9.084 -13.279,5.71 -26.663,11.082 -40.198,15.957 -27.003,9.954 -54.366,18.718 -81.931,26.726 -55.204,15.732 -111.191,28.462 -167.654,38.413 -56.444,10.059 -113.329,17.542 -170.425,22.563 -57.089,5.134 -114.408,7.512 -171.707,7.561 -28.649,-0.088 -57.296,-0.447 -85.918,-1.667 -14.318,-0.398 -28.602,-1.533 -42.898,-2.329 -14.302,-0.745 -28.572,-1.941 -42.836,-3.174 -114.182,-9.136 -227.371,-29.021 -337.928,-57.861 -0.668,-0.173 -1.068,-0.857 -0.894,-1.526 0.17,-0.644 0.827,-1.037 1.474,-0.905 z"
   id="path31" />
				</g>
			</g>
			<g
   style="opacity:0.35"
   id="g34">
				<path
   style="fill:#171717"
   d="m 778.645,2162.83 v 0 c 0,0.925 0.098,1.838 0.146,2.759 -0.048,-0.921 -0.146,-1.834 -0.146,-2.759 z"
   id="path33" />
			</g>
			<g
   style="opacity:0.35"
   id="g35">
				<path
   style="fill:#171717"
   d="m 781.951,2180.85 c -1.392,-3.74 -2.375,-7.632 -2.872,-11.636 0.496,4.004 1.48,7.895 2.872,11.636 z"
   id="path34" />
			</g>
			<g
   style="opacity:0.35"
   id="g36">
				<path
   style="fill:#171717"
   d="m 778.884,2162.441 c -0.15,0.073 -0.238,0.195 -0.238,0.386 0,-0.19 0.088,-0.312 0.238,-0.386 z"
   id="path35" />
			</g>
			<g
   style="opacity:0.35"
   id="g37">
				<path
   style="fill:#171717"
   d="m 791.512,2196.912 c -2.196,-2.505 -4.169,-5.176 -5.83,-8.022 1.662,2.846 3.634,5.517 5.83,8.022 z"
   id="path36" />
			</g>
			<g
   style="opacity:0.35"
   id="g38">
				<path
   style="fill:#171717"
   d="m 1049.039,2364.05 c -12.758,-6.753 -25.14,-13.45 -37.159,-20.078 12.019,6.629 24.402,13.325 37.159,20.078 z"
   id="path37" />
			</g>
			<g
   style="opacity:0.35"
   id="g39">
				<path
   style="fill:#171717"
   d="m 995.004,2334.573 c -15.045,-8.462 -29.437,-16.79 -43.182,-24.956 13.743,8.166 28.136,16.494 43.182,24.956 z"
   id="path38" />
			</g>
			<g
   style="opacity:0.35"
   id="g40">
				<path
   style="fill:#171717"
   d="m 1092.378,2386.482 c -9.313,-4.714 -18.457,-9.409 -27.435,-14.084 8.978,4.675 18.122,9.37 27.435,14.084 z"
   id="path39" />
			</g>
			<g
   style="opacity:0.35"
   id="g41">
				<path
   style="fill:#171717"
   d="m 779.575,2162.407 c -0.205,-0.029 -0.354,-0.017 -0.491,0.01 0.137,-0.024 0.286,-0.042 0.491,-0.01 z"
   id="path40" />
			</g>
			<g
   style="opacity:0.35"
   id="g42">
				<path
   style="fill:#171717"
   d="m 901.908,2278.862 c -37.3,-23.896 -67.81,-45.73 -90.712,-64.443 22.902,18.713 53.411,40.547 90.712,64.443 z"
   id="path41" />
			</g>
			<g
   style="opacity:0.35"
   id="g43">
				<path
   style="fill:#171717"
   d="m 3301.699,2478.401 c -0.01,-0.01 -0.012,-0.015 -0.018,-0.02 0.01,0.01 0.012,0.013 0.018,0.02 z"
   id="path42" />
			</g>
			<g
   style="opacity:0.35"
   id="g44">
				<path
   style="fill:#171717"
   d="m 3304.146,2480.769 c 0.076,0.068 0.148,0.149 0.223,0.215 -0.076,-0.066 -0.148,-0.147 -0.223,-0.215 z"
   id="path43" />
			</g>
			<g
   style="opacity:0.35"
   id="g45">
				<path
   style="fill:#171717"
   d="m 3308.677,2484.709 c -0.02,-0.024 -0.05,-0.042 -0.071,-0.066 0.021,0.025 0.051,0.042 0.071,0.066 z"
   id="path44" />
			</g>
			<g
   style="opacity:0.35"
   id="g46">
				<path
   style="fill:#171717"
   d="m 785.19,2164.79 c 0.63,0.33 1.315,0.701 2.035,1.094 -0.719,-0.393 -1.405,-0.764 -2.035,-1.094 z"
   id="path45" />
			</g>
			<g
   style="opacity:0.35"
   id="g47">
				<path
   style="fill:#171717"
   d="m 783.015,2163.699 c 0.452,0.217 0.946,0.461 1.469,0.73 -0.522,-0.269 -1.017,-0.515 -1.469,-0.73 z"
   id="path46" />
			</g>
			<g
   style="opacity:0.35"
   id="g48">
				<path
   style="fill:#171717"
   d="m 787.798,2166.196 c 1.949,1.079 4.197,2.373 6.757,3.877 -2.56,-1.506 -4.809,-2.798 -6.757,-3.877 z"
   id="path47" />
			</g>
			<g
   style="opacity:0.35"
   id="g49">
				<path
   style="fill:#171717"
   d="m 781.274,2162.932 c 0.327,0.129 0.684,0.281 1.073,0.457 -0.389,-0.176 -0.745,-0.327 -1.073,-0.457 z"
   id="path48" />
			</g>
			<g
   style="opacity:0.35"
   id="g50">
				<path
   style="fill:#171717"
   d="m 779.961,2162.495 c 0.229,0.056 0.474,0.125 0.764,0.227 -0.289,-0.102 -0.536,-0.171 -0.764,-0.227 z"
   id="path49" />
			</g>
			<g
   style="opacity:0.35"
   id="g51">
				<path
   style="fill:#171717"
   d="m 796.077,2201.563 c -1.388,-1.23 -2.7,-2.527 -3.936,-3.882 1.235,1.355 2.549,2.651 3.936,3.882 2.268,2.026 4.685,4.114 7.17,6.23 -2.485,-2.117 -4.902,-4.207 -7.17,-6.23 z"
   id="path50" />
			</g>
			<g
   style="opacity:0.35"
   id="g52">
				<path
   style="fill:#171717"
   d="m 1790.674,2640.789 c -13.14,-3.108 -26.222,-6.279 -39.214,-9.534 12.992,3.254 26.074,6.426 39.214,9.534 z"
   id="path51" />
			</g>
			<g
   style="opacity:0.35"
   id="g53">
				<path
   style="fill:#171717"
   d="m 1932.865,2670.796 c -15.455,-2.859 -30.831,-5.837 -46.127,-8.926 15.296,3.088 30.672,6.067 46.127,8.926 z"
   id="path52" />
			</g>
			<g
   style="opacity:0.35"
   id="g54">
				<path
   style="fill:#171717"
   d="m 1932.865,2670.796 c 14.125,2.615 28.322,5.12 42.572,7.534 -14.25,-2.414 -28.447,-4.919 -42.572,-7.534 z"
   id="path53" />
			</g>
			<g
   style="opacity:0.35"
   id="g55">
				<path
   style="fill:#171717"
   d="m 2145.792,2701.729 c -39.12,-4.092 -77.903,-9.058 -116.288,-14.783 38.387,5.725 77.168,10.691 116.288,14.783 z"
   id="path54" />
			</g>
			<g
   style="opacity:0.35"
   id="g56">
				<path
   style="fill:#171717"
   d="m 1243.104,2457.407 c -53.712,-23.506 -103.92,-47.251 -150.055,-70.586 46.136,23.335 96.343,47.08 150.055,70.586 z"
   id="path55" />
			</g>
			<g
   style="opacity:0.35"
   id="g57">
				<path
   style="fill:#171717"
   d="m 2315.262,2713.704 c -39.982,-1.44 -79.73,-3.879 -119.181,-7.222 39.451,3.342 79.2,5.781 119.181,7.222 z"
   id="path56" />
			</g>
			<g
   style="opacity:0.35"
   id="g58">
				<path
   style="fill:#171717"
   d="m 2145.792,2701.729 c 15.331,1.604 30.717,3.064 46.146,4.397 -15.429,-1.331 -30.815,-2.793 -46.146,-4.397 z"
   id="path57" />
			</g>
			<g
   style="opacity:0.35"
   id="g59">
				<path
   style="fill:#171717"
   d="m 2365.012,2714.973 c -16.055,-0.239 -32.076,-0.645 -48.062,-1.208 15.986,0.564 32.008,0.969 48.062,1.208 z"
   id="path58" />
			</g>
			<g
   style="opacity:0.35"
   id="g60">
				<path
   style="fill:#171717"
   d="m 3306.335,2497.058 c -303.191,164.285 -627.964,222.488 -940.61,217.927 312.647,4.563 637.421,-53.642 940.61,-217.927 2.114,-1.125 3.406,-2.957 3.936,-4.978 -0.53,2.022 -1.821,3.853 -3.936,4.978 z"
   id="path59" />
			</g>
			<g
   style="opacity:0.35"
   id="g61">
				<path
   style="fill:#171717"
   d="m 1858.984,2656.111 c -19.736,-4.185 -39.329,-8.547 -58.765,-13.079 19.437,4.531 39.029,8.894 58.765,13.079 z"
   id="path60" />
			</g>
			<g
   style="opacity:0.35"
   id="g62">
				<path
   style="fill:#171717"
   d="m 1365.863,2508.127 c -10.316,-4.016 -20.526,-8.054 -30.643,-12.112 10.117,4.058 20.327,8.096 30.643,12.112 z"
   id="path61" />
			</g>
			<g
   style="opacity:0.35"
   id="g63">
				<path
   style="fill:#171717"
   d="m 1658.036,2606.284 c -31.483,-8.931 -62.44,-18.24 -92.825,-27.861 30.385,9.621 61.342,18.931 92.825,27.861 z"
   id="path62" />
			</g>
			<g
   style="opacity:0.35"
   id="g64">
				<path
   style="fill:#171717"
   d="m 1309.886,2485.737 c -2.115,-0.869 -4.227,-1.738 -6.333,-2.61 2.106,0.872 4.218,1.741 6.333,2.61 z"
   id="path63" />
			</g>
			<g
   style="opacity:0.35"
   id="g65">
				<path
   style="fill:#171717"
   d="m 1273.73,2470.625 c -1.73,-0.735 -3.457,-1.47 -5.179,-2.207 1.722,0.737 3.45,1.472 5.179,2.207 z"
   id="path64" />
			</g>
			<g
   style="opacity:0.35"
   id="g66">
				<path
   style="fill:#171717"
   d="m 1430.947,2532.671 c -12.142,-4.434 -24.17,-8.901 -36.071,-13.406 11.901,4.505 23.929,8.972 36.071,13.406 z"
   id="path65" />
			</g>
			<g
   style="opacity:0.35"
   id="g67">
				<path
   style="fill:#171717"
   d="m 1552.031,2574.219 c -9.255,-2.974 -18.453,-5.977 -27.596,-9.004 9.143,3.027 18.341,6.03 27.596,9.004 z"
   id="path66" />
			</g>
			<g
   style="opacity:0.35"
   id="g68">
				<path
   style="fill:#171717"
   d="m 1507.426,2559.526 c -6.501,-2.192 -12.972,-4.399 -19.415,-6.616 6.442,2.217 12.913,4.424 19.415,6.616 z"
   id="path67" />
			</g>
			<g
   style="opacity:0.35"
   id="g69">
				<path
   style="fill:#171717"
   d="m 1470.522,2546.833 c -8.53,-2.991 -17.006,-6.001 -25.425,-9.031 8.42,3.031 16.895,6.041 25.425,9.031 z"
   id="path68" />
			</g>
			<g
   id="g70">
				<path
   style="fill:#238f4e"
   d="m 614.266,2538.834 c 85.714,18.637 176.131,-62.524 176.131,-62.524 0,0 -48.552,-111.378 -134.266,-130.015 C 570.417,2327.658 480,2408.819 480,2408.819 c 0,0 48.552,111.378 134.266,130.015 z"
   id="path69" />
				<path
   style="fill:#171717"
   d="m 640.476,2544.078 c -8.904,0 -17.849,-0.869 -26.743,-2.803 -85.967,-18.691 -135.535,-130.332 -136.025,-131.455 -0.43,-0.991 -0.178,-2.144 0.622,-2.861 0.916,-0.82 92.373,-81.782 178.333,-63.105 85.967,18.691 135.535,130.332 136.025,131.455 0.43,0.991 0.178,2.144 -0.622,2.861 -0.819,0.737 -74.417,65.908 -151.59,65.908 z m -25.679,-7.686 c 77.776,16.885 160.881,-50.811 172.546,-60.747 -6.487,-13.882 -53.965,-109.995 -131.746,-126.909 -77.773,-16.904 -160.881,50.811 -172.546,60.747 6.487,13.882 53.965,109.995 131.746,126.909 z"
   id="path70" />
			</g>
			<g
   style="opacity:0.5"
   id="g71">
				<path
   style="fill:#e0e0e0"
   d="m 530.53,2413.969 c 0,0 64.853,-58.192 136.761,-64.669 -3.625,-1.187 -7.357,-2.216 -11.16,-3.04 -85.721,-18.62 -176.115,62.577 -176.115,62.577 0,0 48.529,111.387 134.249,130.007 13.125,2.836 26.395,3.368 39.427,2.188 C 574.907,2515.79 530.53,2413.969 530.53,2413.969 Z"
   id="path71" />
			</g>
			<g
   style="opacity:0.3"
   id="g72">
				<path
   style="fill:#171717"
   d="m 790.416,2476.314 c 0,0 -48.576,-111.35 -134.285,-130.054 -31.927,-6.969 -64.466,-0.075 -92.724,11.365 5.369,0.393 10.813,1.184 16.163,2.349 85.72,18.62 134.249,130.007 134.249,130.007 0,0 -35.649,32.032 -83.476,51.2 80.589,6.467 160.073,-64.867 160.073,-64.867 z"
   id="path72" />
			</g>
			<g
   id="g73">
				<path
   style="fill:#171717"
   d="m 640.859,2556.641 c -9.868,0 -19.829,-0.967 -29.785,-3.13 v 0 C 518.913,2533.472 468.34,2419.654 466.23,2414.82 c -2.585,-5.933 -1.079,-12.856 3.735,-17.178 3.926,-3.525 97.185,-86.05 189.355,-66.025 92.161,20.039 142.734,133.857 144.844,138.691 2.585,5.933 1.079,12.856 -3.735,17.178 -3.501,3.144 -78.09,69.155 -159.57,69.155 z m -23.403,-32.485 c 62.668,13.638 130.586,-33.447 154.231,-51.914 -13.831,-26.606 -56.069,-97.642 -118.748,-111.27 -62.698,-13.667 -130.588,33.442 -154.231,51.914 13.831,26.607 56.07,97.642 118.748,111.27 z"
   id="path73" />
			</g>
			<g
   id="g74">
				<path
   style="fill:#171717"
   d="m 616.768,2435.042 168.517,24.788 c 8.226,1.208 13.914,8.857 12.704,17.085 -1.21,8.225 -8.859,13.911 -17.085,12.703 -0.657,-0.098 -1.379,-0.259 -2.001,-0.435 l -163.595,-47.427 c -1.826,-0.53 -2.877,-2.439 -2.347,-4.265 0.484,-1.676 2.129,-2.699 3.807,-2.449 z"
   id="path74" />
			</g>
			<g
   id="g76">
				<path
   style="fill:#238f4e"
   d="m 1064.414,2625.532 c 11.479,-86.962 -76.888,-170.351 -76.888,-170.351 0,0 -106.977,57.604 -118.456,144.566 -11.479,86.962 76.888,170.351 76.888,170.351 0,0 106.978,-57.604 118.456,-144.566 z"
   id="path75" />
				<path
   style="fill:#171717"
   d="m 945.959,2772.598 c -0.622,0 -1.24,-0.234 -1.716,-0.684 -0.893,-0.84 -89.163,-85.273 -77.651,-172.495 11.514,-87.222 118.669,-145.859 119.751,-146.44 0.942,-0.508 2.112,-0.356 2.9,0.386 0.894,0.84 89.163,85.273 77.649,172.495 -11.511,87.222 -118.667,145.859 -119.749,146.44 -0.371,0.2 -0.778,0.298 -1.184,0.298 z m 41.16,-314.321 c -13.301,7.612 -105.154,62.881 -115.571,141.797 -10.415,78.916 63.953,156.123 74.819,166.929 13.301,-7.612 105.154,-62.881 115.569,-141.797 v 0 c 10.422,-78.956 -63.948,-156.128 -74.817,-166.929 z"
   id="path76" />
			</g>
			<g
   style="opacity:0.5"
   id="g77">
				<path
   style="fill:#e0e0e0"
   d="m 1064.409,2625.518 c 0.834,-6.385 1.149,-12.754 0.983,-19.062 -29.636,66.905 -108.274,109.215 -108.274,109.215 0,0 -75.862,-71.584 -77.871,-151.271 -4.97,11.111 -8.572,22.926 -10.194,35.357 -11.473,86.96 76.887,170.333 76.887,170.333 0,0 106.996,-57.611 118.469,-144.572 z"
   id="path77" />
			</g>
			<g
   style="opacity:0.3"
   id="g78">
				<path
   style="fill:#171717"
   d="m 1030.001,2699.902 c 16.929,-21.089 30.7,-46.141 34.408,-74.384 11.473,-86.96 -76.887,-170.332 -76.887,-170.332 0,0 -106.995,57.611 -118.469,144.571 -0.73,5.625 -1.073,11.259 -0.983,16.867 35.211,-43.886 84.061,-70.188 84.061,-70.188 0,0 77.232,72.891 77.87,153.466 z"
   id="path78" />
			</g>
			<g
   id="g79">
				<path
   style="fill:#171717"
   d="m 945.964,2785.118 c -3.75,0 -7.456,-1.401 -10.313,-4.097 -3.838,-3.618 -93.813,-89.736 -81.472,-183.237 12.344,-93.506 121.582,-153.325 126.226,-155.825 5.701,-3.066 12.725,-2.144 17.429,2.3 3.838,3.618 93.814,89.736 81.47,183.242 v -0.01 c -12.339,93.506 -121.58,153.325 -126.223,155.825 -2.241,1.206 -4.688,1.797 -7.117,1.797 z m 39.058,-310.957 c -25.371,15.986 -92.666,63.96 -101.062,127.554 -8.391,63.584 44.143,127.373 64.504,149.404 25.371,-15.986 92.666,-63.96 101.06,-127.549 0,-0.01 0,-0.01 0,-0.01 8.393,-63.584 -44.141,-127.373 -64.502,-149.404 z"
   id="path79" />
			</g>
			<g
   id="g80">
				<path
   style="fill:#171717"
   d="m 960.771,2631.628 10.753,-169.99 c 0.525,-8.298 7.677,-14.597 15.974,-14.075 8.298,0.525 14.6,7.678 14.075,15.977 -0.043,0.662 -0.145,1.396 -0.269,2.029 l -33.723,166.96 c -0.377,1.863 -2.192,3.069 -4.056,2.69 -1.707,-0.344 -2.862,-1.899 -2.754,-3.591 z"
   id="path80" />
			</g>
			<g
   id="g82">
				<path
   style="fill:#238f4e"
   d="m 3371.285,2617.062 c -75.556,44.424 -86.911,165.297 -86.911,165.297 0,0 111.145,48.849 186.701,4.425 75.556,-44.424 86.911,-165.297 86.911,-165.297 0,0 -111.145,-48.849 -186.701,-4.425 z"
   id="path81" />
				<path
   style="fill:#171717"
   d="m 3394.551,2807.789 c -57.573,0 -110.413,-22.803 -111.182,-23.14 -0.986,-0.435 -1.584,-1.45 -1.484,-2.524 0.115,-1.221 12.354,-122.661 88.135,-167.217 75.776,-44.565 187.852,3.794 188.972,4.287 0.986,0.435 1.584,1.45 1.484,2.524 -0.115,1.221 -12.354,122.661 -88.135,167.217 -23.862,14.033 -51.328,18.848 -77.79,18.853 z m -107.483,-27.012 c 14.177,5.796 114.185,44.16 182.739,3.853 68.564,-40.313 83.66,-146.357 85.486,-161.563 -14.175,-5.796 -114.182,-44.165 -182.739,-3.853 v 0 c -68.565,40.313 -83.66,146.358 -85.486,161.563 z m 84.218,-163.716 h 0.049 z"
   id="path82" />
			</g>
			<g
   style="opacity:0.5"
   id="g83">
				<path
   style="fill:#e0e0e0"
   d="m 3361.285,2622.061 c -5.447,3.203 -10.521,6.841 -15.321,10.764 73.744,-27.288 167.021,13.662 167.021,13.662 0,0 -9.814,104.036 -71.591,154.534 6.747,-2.495 13.346,-5.513 19.679,-9.236 75.557,-44.424 86.912,-165.298 86.912,-165.298 0,0 -111.144,-48.85 -186.7,-4.426 z"
   id="path83" />
			</g>
			<g
   style="opacity:0.3"
   id="g84">
				<path
   style="fill:#171717"
   d="m 3371.262,2617.083 c -75.514,44.397 -86.873,165.291 -86.873,165.291 0,0 111.108,48.835 186.68,4.421 12.001,-7.04 22.374,-15.988 31.339,-26.093 -60.356,2.331 -117.808,-22.879 -117.808,-22.879 0,0 8.023,-85.626 55.65,-139.234 -23.658,0.917 -47.732,5.974 -68.988,18.494 z"
   id="path84" />
			</g>
			<g
   id="g85">
				<path
   style="fill:#171717"
   d="m 3394.096,2820.503 c -59.26,0 -112.505,-22.959 -115.764,-24.395 -5.925,-2.603 -9.517,-8.711 -8.911,-15.156 0.493,-5.244 13.008,-129.072 94.253,-176.841 64.927,-38.174 151.638,-14.087 185.903,-1.958 14.932,5.288 23.853,20.464 21.213,36.079 -6.06,35.84 -27.163,123.32 -92.104,161.499 -26.34,15.489 -56.159,20.772 -84.59,20.772 z m -93.234,-47.856 c 28.181,10.156 107.344,33.672 162.6,1.187 54.055,-31.777 72.351,-108.916 77.71,-140.61 0.205,-1.211 -0.461,-2.339 -1.621,-2.749 -30.298,-10.728 -106.604,-32.246 -160.652,-0.464 v 0 c -55.406,32.572 -73.247,113.071 -78.037,142.636 z m 70.424,-155.586 h 0.049 z"
   id="path85" />
			</g>
			<g
   id="g86">
				<path
   style="fill:#171717"
   d="m 3439.811,2694.954 -140.505,96.05 c -6.864,4.692 -16.232,2.932 -20.924,-3.933 -4.692,-6.863 -2.932,-16.23 3.932,-20.923 0.549,-0.376 1.19,-0.747 1.768,-1.04 l 152.249,-76.077 c 1.7,-0.85 3.768,-0.159 4.618,1.541 0.777,1.559 0.262,3.427 -1.138,4.382 z"
   id="path86" />
			</g>
			<g
   id="g88">
				<path
   style="fill:#a3b1b8"
   d="m 1694.823,2294.942 c 0,84.142 -112.544,433.668 -8.547,499.328 126.976,80.168 258.062,-102.436 251.352,-400.838"
   id="path87" />
				<path
   style="fill:#171717"
   d="m 1746.863,2815.679 c -20.703,0 -41.558,-6.44 -61.921,-19.297 -77.031,-48.638 -38.901,-242.896 -11.06,-384.736 9.895,-50.415 18.442,-93.96 18.442,-116.704 0,-1.382 1.118,-2.5 2.5,-2.5 1.382,0 2.5,1.118 2.5,2.5 0,23.232 -8.591,66.992 -18.538,117.666 -26.008,132.505 -65.31,332.739 8.826,379.546 36.499,23.047 74.634,24.565 110.278,4.395 86.406,-48.911 141.56,-210.889 137.239,-403.057 -0.029,-1.382 1.064,-2.529 2.444,-2.559 0.02,0 0.039,0 0.056,0 1.355,0 2.468,1.084 2.5,2.441 4.36,193.965 -51.812,357.734 -139.778,407.524 -17.414,9.859 -35.395,14.776 -53.488,14.781 z"
   id="path88" />
			</g>
			<g
   style="opacity:0.3"
   id="g89">
				<path
   style="fill:#171717"
   d="m 1686.288,2794.272 c -32.855,-20.765 -44.083,-69.804 -44.12,-129.845 6.796,14.681 16.033,26.359 28.274,34.095 110.829,69.999 224.826,-60.338 247.526,-293.154 0.932,-9.556 10.778,-15.547 19.674,-11.933 v 0 c 6.683,298.402 -124.401,481.003 -251.354,400.837 z"
   id="path89" />
			</g>
			<g
   id="g90">
				<path
   style="fill:#171717"
   d="m 1709.843,2294.941 c -0.129,12.886 -1.722,24.282 -3.354,35.786 -1.683,11.433 -3.661,22.654 -5.708,33.826 -4.114,22.327 -8.545,44.417 -12.847,66.489 -8.625,44.114 -16.862,88.125 -22.849,132.236 -5.796,44.009 -9.961,88.479 -6.735,131.467 1.76,21.299 5.455,42.527 13.829,60.166 4.117,8.813 9.545,16.428 16.118,22.131 l 2.501,2.09 2.659,1.841 c 1.779,1.248 4.271,2.463 6.365,3.708 4.298,2.703 8.875,4.561 13.401,6.55 9.146,3.528 18.572,6.196 28.113,6.563 4.761,0.664 9.51,-0.059 14.271,-0.112 4.689,-0.95 9.476,-1.257 14.063,-2.896 18.682,-4.995 35.668,-16.921 50.376,-31.306 14.813,-14.451 27.085,-32.034 37.598,-50.662 10.552,-18.645 19.44,-38.481 26.832,-58.948 7.509,-20.427 13.962,-41.362 19.42,-62.649 5.32,-21.331 9.863,-42.922 13.61,-64.749 7.491,-43.667 11.699,-88.062 15.118,-132.93 v -0.042 c 0.211,-2.769 2.626,-4.841 5.394,-4.631 2.446,0.186 4.349,2.097 4.613,4.448 5.105,45.159 5.477,91.003 1.173,136.641 l -1.827,17.109 c -0.637,5.701 -1.636,11.362 -2.439,17.053 -1.572,11.382 -3.806,22.695 -6.073,33.992 -4.838,22.554 -11.086,44.897 -18.971,66.785 -8.048,21.814 -17.494,43.306 -29.47,63.679 -11.919,20.364 -26.108,39.78 -43.63,56.743 -17.454,16.809 -38.586,31.548 -63.611,38.389 -6.1,2.065 -12.62,2.715 -18.984,3.843 -6.482,0.237 -12.991,0.994 -19.451,0.215 -13.005,-0.596 -25.576,-4.082 -37.345,-8.669 -5.801,-2.5 -11.63,-4.976 -16.918,-8.24 -2.745,-1.624 -5.341,-2.878 -8.195,-4.827 l -4.271,-2.983 -3.995,-3.301 c -10.449,-9.06 -18.153,-20.383 -23.563,-31.909 -10.897,-23.257 -14.628,-47.29 -16.656,-70.688 -3.473,-46.963 1.008,-92.729 6.908,-137.893 6.13,-45.146 14.484,-89.707 23.136,-133.975 4.315,-22.131 8.738,-44.194 12.784,-66.155 2.012,-10.977 3.939,-21.936 5.535,-32.778 1.564,-10.767 2.965,-21.758 3.033,-31.409 v -0.259 c 0.059,-8.293 6.831,-14.971 15.126,-14.91 8.295,0.059 14.971,6.831 14.912,15.125 z"
   id="path90" />
			</g>
			<g
   style="opacity:0.3"
   id="g91">
				<path
   style="fill:#171717"
   d="m 2527.276,2002.623 c -20.615,70.217 -130.596,99.167 -211.589,62.932 -66.575,-29.776 -74.836,-106.489 -75.098,-140.171 -0.075,-8.411 -7.848,-14.606 -16.071,-12.954 -0.676,0.15 -1.352,0.263 -2.065,0.413 26.097,-8.824 54.221,-17.084 83.171,-23.844 59.666,-13.855 123.086,-21.103 180.574,-12.504 35.708,39.802 52.305,87.828 41.078,126.128 z"
   id="path91" />
			</g>
			<g
   id="g93">
				<path
   style="fill:#a3b1b8"
   d="m 2269.519,1895.457 c 6.716,-1.363 13.043,3.698 13.1,10.55 0.226,27.444 6.951,89.919 61.168,114.173 65.977,29.516 155.559,5.925 172.349,-51.273 25.583,-87.151 -125.895,-236.306 -300.264,-127.915 -51.841,32.225 -67.771,85.696 -67.771,85.696 0,0 48.658,-15.173 70.171,-20.214 16.577,-3.882 37.708,-8.269 51.247,-11.017 z"
   id="path92" />
				<path
   style="fill:#171717"
   d="m 2405.747,2035.376 c -21.821,0 -43.73,-4.302 -62.981,-12.915 -55.886,-25 -62.429,-89.756 -62.646,-116.436 -0.02,-2.495 -1.147,-4.829 -3.091,-6.406 -1.973,-1.597 -4.526,-2.227 -7.012,-1.709 0,0 0,0 0,0 -11.677,2.368 -33.853,6.943 -51.174,11.001 -21.179,4.956 -69.509,20.015 -69.995,20.166 -0.872,0.269 -1.843,0.039 -2.5,-0.61 -0.659,-0.65 -0.903,-1.606 -0.64,-2.49 0.161,-0.547 16.802,-54.756 68.845,-87.109 83.264,-51.758 174.431,-51.147 243.865,1.655 47.178,35.874 71.899,88.955 60.12,129.087 -6.489,22.1 -24.172,40.786 -49.792,52.608 -19.013,8.769 -40.961,13.158 -62.997,13.158 z m -134.024,-142.641 c 3.054,0 6.03,1.04 8.452,3.003 3.108,2.52 4.912,6.255 4.944,10.249 0.21,25.713 6.448,88.096 59.688,111.914 37.427,16.733 85.251,16.66 121.841,-0.225 24.29,-11.211 41.013,-28.779 47.087,-49.473 11.211,-38.188 -12.781,-89.058 -58.347,-123.701 -67.722,-51.489 -156.765,-52.012 -238.196,-1.387 -41.65,25.889 -59.91,66.216 -65.078,79.717 12.81,-3.945 48.198,-14.717 65.586,-18.794 17.385,-4.067 39.617,-8.657 51.323,-11.03 0.899,-0.18 1.804,-0.273 2.7,-0.273 z m -2.204,2.724 h 0.049 z"
   id="path93" />
			</g>
			<g
   style="opacity:0.3"
   id="g94">
				<path
   style="fill:#171717"
   d="m 2518.677,1955.198 c -0.413,4.694 -1.239,9.275 -2.553,13.705 -16.784,57.187 -106.377,80.806 -172.351,51.292 -54.221,-24.257 -60.942,-86.738 -61.167,-114.187 -0.038,-6.872 -6.383,-11.903 -13.105,-10.552 -13.518,2.741 -34.658,7.134 -51.217,11.002 -21.516,5.069 -70.179,20.239 -70.179,20.239 0,0 5.557,-18.624 20.727,-40.478 12.542,-3.868 48.138,-14.719 65.711,-18.812 16.597,-3.868 37.7,-8.261 51.255,-11.039 6.721,-1.352 13.029,3.717 13.104,10.551 0.225,27.448 6.947,89.93 61.167,114.187 55.16,24.671 126.804,12.242 158.608,-25.908 z"
   id="path94" />
			</g>
			<g
   style="opacity:0.6"
   id="g95">
				<path
   style="fill:#e0e0e0"
   d="m 2517.325,1964.135 c -16.296,-84.936 -150.309,-184.554 -301.444,-90.568 -22.229,13.781 -37.812,31.466 -48.401,47.199 -11.152,3.38 -19.375,5.933 -19.375,5.933 0,0 15.921,-53.47 67.776,-85.687 171.224,-106.453 320.407,35.446 301.444,123.123 z"
   id="path95" />
			</g>
			<g
   id="g96">
				<path
   style="fill:#171717"
   d="m 2405.757,2048.067 c -23.442,0 -46.978,-4.722 -68.103,-14.175 -59.812,-26.758 -68.945,-93.276 -69.949,-122.734 -13.337,2.729 -31.541,6.553 -46.006,9.941 -20.74,4.858 -68.645,19.78 -69.126,19.932 -5.298,1.646 -11.072,0.244 -15.024,-3.652 -3.95,-3.901 -5.427,-9.658 -3.843,-14.976 0.718,-2.407 18.201,-59.331 74.236,-94.165 87.854,-54.609 184.321,-53.74 258.052,2.319 51.218,38.945 77.764,97.578 64.553,142.578 -7.52,25.625 -27.607,47.09 -56.56,60.449 -20.916,9.654 -44.527,14.483 -68.23,14.483 z m -136.504,-167.295 c 6.394,0 12.639,2.153 17.737,6.216 6.594,5.254 10.491,13.096 10.688,21.519 0.669,28.159 8.345,78.325 52.241,97.964 34.275,15.332 78.032,15.268 111.482,-0.161 20.962,-9.673 35.281,-24.458 40.322,-41.631 9.626,-32.788 -13.047,-79.141 -53.911,-110.21 -63.418,-48.213 -147.161,-48.481 -224.011,-0.723 -22.813,14.185 -38.03,33.145 -47.6,48.735 13.748,-4.053 28.809,-8.325 38.645,-10.63 15.486,-3.628 35.015,-7.71 48.672,-10.498 1.907,-0.391 3.828,-0.581 5.735,-0.581 z m -2.732,15.298 h 0.049 z"
   id="path96" />
			</g>
			<g
   id="g98">
				<path
   style="fill:#a3b1b8"
   d="m 1647.393,1540.733 c 0,0 6.549,-389.696 324.796,-374.586 36.57,1.736 219.442,27.11 296.569,167.829 11.01,20.088 11.153,50.967 -21.947,51.377 0,0 63.81,77.254 51.904,162.746 -11.906,85.492 -62.544,47.657 -62.544,47.657 0,0 9.923,120.729 -84.019,114.75 z"
   id="path97" />
				<path
   style="fill:#171717"
   d="m 2158.764,1713.218 c -2.217,0 -4.473,-0.073 -6.772,-0.22 -0.217,-0.015 -0.432,-0.059 -0.637,-0.127 L 1646.597,1543.1 c -1.033,-0.347 -1.721,-1.323 -1.704,-2.412 0.034,-1.973 4.651,-198.677 119.844,-306.694 54.016,-50.649 123.855,-74.294 207.571,-70.344 58.811,2.793 227.112,38.616 298.643,169.124 6.113,11.152 10.559,28.794 2.964,41.802 -3.103,5.317 -9.438,11.577 -22.236,12.988 12.483,16.709 59.939,86.011 49.514,160.879 -4.29,30.791 -14.102,49.595 -29.165,55.884 -13.162,5.483 -26.499,-0.156 -33.105,-3.872 0.51,15.62 -0.315,64.248 -28.03,92.48 -13.232,13.477 -30.747,20.283 -52.129,20.283 z m -6.13,-5.19 c 22.83,1.416 41.204,-4.873 54.678,-18.584 31.033,-31.597 26.418,-92.866 26.367,-93.481 -0.078,-0.981 0.422,-1.914 1.282,-2.388 0.857,-0.483 1.912,-0.415 2.705,0.176 0.168,0.132 17,12.451 32.461,5.947 13.303,-5.571 22.087,-23.047 26.113,-51.948 11.619,-83.433 -50.725,-160.039 -51.357,-160.806 -0.613,-0.742 -0.745,-1.768 -0.339,-2.642 0.405,-0.874 1.274,-1.44 2.236,-1.45 11.038,-0.137 18.713,-3.77 22.815,-10.796 6.123,-10.483 2.891,-26.079 -3.03,-36.88 -70.425,-128.489 -236.462,-163.777 -294.497,-166.531 -82.339,-3.94 -150.906,19.299 -203.894,68.982 -107.751,101.021 -117.478,281.235 -118.225,301.328 z"
   id="path98" />
			</g>
			<g
   style="opacity:0.6"
   id="g99">
				<path
   style="fill:#e0e0e0"
   d="m 2240.325,1598.331 c -2.628,-1.427 -4.168,-2.591 -4.168,-2.591 0,0 9.951,120.758 -83.997,114.75 l -11.302,-3.792 c 76.874,-35.5 79.304,-143.738 79.304,-143.738 0,0 8.861,18.849 20.163,35.371 z"
   id="path99" />
			</g>
			<g
   style="opacity:0.6"
   id="g100">
				<path
   style="fill:#e0e0e0"
   d="m 2298.714,1548.09 c -2.741,19.638 -1.826,50.462 -36.446,55.948 48.051,-95.834 -71.677,-235.02 -71.677,-235.02 33.118,-0.413 75.755,27.786 64.753,7.698 -77.164,-140.734 -260.028,-166.117 -296.601,-167.845 -173.402,-8.224 -254.283,103.748 -291.982,207.384 30.302,-112.61 107.691,-259.502 305.425,-250.115 36.573,1.727 219.437,27.11 296.563,167.844 11.002,20.089 11.152,50.954 -21.929,51.367 10e-4,10e-4 63.797,77.24 51.894,162.739 z"
   id="path100" />
			</g>
			<g
   id="g101">
				<path
   style="fill:#171717"
   d="m 2158.86,1725.743 c -2.51,0 -5.063,-0.083 -7.664,-0.249 -1.306,-0.083 -2.593,-0.337 -3.833,-0.752 l -504.758,-169.771 c -6.201,-2.09 -10.339,-7.949 -10.229,-14.492 0.139,-8.276 4.775,-204.009 123.796,-315.615 56.582,-53.059 129.521,-77.873 216.729,-73.718 2.183,0.103 219.495,12.258 309.028,175.613 7.686,14.019 13.027,36.606 2.795,54.131 -2.244,3.843 -6.299,9.097 -13.154,13.184 19.143,29.209 51.262,89.736 42.021,156.094 -4.941,35.493 -17.305,57.598 -36.743,65.713 -9.106,3.799 -18.027,3.862 -25.754,2.368 -1.492,23.613 -7.866,59.619 -31.267,83.457 -15.679,15.965 -36.16,24.037 -60.967,24.037 z m -3.858,-30.127 c 18.54,0.859 32.722,-4.087 43.389,-14.956 22.473,-22.891 24.087,-68.159 22.813,-83.672 -0.486,-5.889 2.527,-11.509 7.695,-14.37 5.161,-2.866 11.528,-2.432 16.262,1.108 0.02,0.01 11.58,8.071 20.203,4.395 8.523,-3.638 15.256,-18.984 18.477,-42.095 10.823,-77.725 -48.025,-150.4 -48.621,-151.123 -3.667,-4.463 -4.456,-10.64 -2.021,-15.879 2.437,-5.234 7.651,-8.618 13.428,-8.691 6.335,-0.078 10.425,-1.621 12.158,-4.59 3.018,-5.166 1.641,-15.718 -3.198,-24.546 -67.656,-123.442 -228.027,-157.385 -284.111,-160.046 -78.784,-3.748 -144.243,18.308 -194.656,65.53 -94.531,88.55 -111.072,241.533 -113.862,283.442 z"
   id="path101" />
			</g>
			<g
   id="g103">
				<path
   style="fill:#a3b1b8"
   d="m 1375.9,1693.715 c 0,0 -336.729,-196.264 -488.659,83.783 -17.459,32.181 -90.483,201.748 -10.069,340.615 11.479,19.823 37.819,35.941 55.315,7.84 0,0 33.027,94.6 112.322,128.701 79.295,34.102 73.163,-28.812 73.163,-28.812 0,0 98.128,71.026 141.677,-12.427 z"
   id="path102" />
				<path
   style="fill:#171717"
   d="m 1084.804,2267.291 c -11.265,0 -24.958,-3.447 -40.984,-10.342 -69.443,-29.863 -104.136,-106.357 -111.961,-125.688 -7.839,10.22 -16.516,12.612 -22.629,12.295 -15.061,-0.239 -27.847,-13.179 -34.221,-24.185 -74.582,-128.799 -18.044,-291.309 10.034,-343.062 39.966,-73.672 96.387,-121.147 167.698,-141.113 152.061,-42.583 322.712,55.366 324.419,56.362 0.94,0.547 1.418,1.641 1.179,2.705 l -116.252,519.702 c -0.046,0.21 -0.122,0.415 -0.222,0.61 -11.348,21.748 -27.388,35.2 -47.673,39.985 -38.508,9.058 -80.53,-15.405 -93.625,-23.931 -0.242,7.583 -2.324,21.909 -13.835,30.322 -5.787,4.225 -13.114,6.34 -21.928,6.34 z M 932.487,2123.453 c 0.09,0 0.183,0.01 0.276,0.015 0.955,0.107 1.768,0.752 2.085,1.66 0.327,0.938 33.611,93.97 110.95,127.231 26.824,11.533 46.333,13.066 57.983,4.556 13.574,-9.917 11.724,-30.62 11.704,-30.825 -0.095,-0.981 0.391,-1.924 1.243,-2.412 0.854,-0.483 1.914,-0.43 2.71,0.142 0.503,0.361 50.525,36.05 93.621,25.874 18.713,-4.424 33.589,-16.914 44.221,-37.144 l 115.776,-517.568 c -17.573,-9.771 -176.772,-94.8 -318.989,-54.966 -69.949,19.595 -125.337,66.25 -164.629,138.677 -27.708,51.064 -83.533,211.367 -10.102,338.169 6.172,10.659 17.834,21.504 29.976,21.694 0.11,0.01 0.22,0.01 0.33,0.01 7.998,0 14.968,-4.683 20.725,-13.931 0.458,-0.738 1.264,-1.177 2.12,-1.177 z"
   id="path103" />
			</g>
			<g
   style="opacity:0.6"
   id="g104">
				<path
   style="fill:#e0e0e0"
   d="m 1375.906,1693.706 -4.844,21.591 c -90.681,-41.229 -331.146,-122.71 -452.881,101.721 -16.672,30.715 -83.885,186.431 -20.201,321.233 -8.411,-4.018 -15.921,-11.753 -20.802,-20.126 -80.43,-138.894 -7.397,-308.429 10.063,-340.608 151.925,-280.081 488.665,-83.811 488.665,-83.811 z"
   id="path104" />
			</g>
			<g
   id="g106">
				<path
   style="fill:#d1cece"
   d="m 1378.805,1826.291 c 94.227,78.757 43.082,221.403 -63.907,281.69 -106.99,60.287 -257.873,53.159 -323.536,-63.371 -60.287,-106.99 -26.7,-250.9 84.562,-302.881 98.058,-45.812 227.556,21.604 302.881,84.562 z"
   id="path105" />
				<path
   style="fill:#171717"
   d="m 1174.258,2147.925 c -73.901,0 -144.983,-30.947 -185.073,-102.09 -31.746,-56.333 -38.686,-123.774 -19.045,-185.029 17.61,-54.927 54.805,-98.018 104.729,-121.343 96.56,-45.107 224.944,17.544 305.542,84.907 v 0 c 36.394,30.42 54.031,73.374 49.663,120.947 -5.92,64.468 -50.647,129.17 -113.948,164.839 -43.116,24.293 -93.106,37.769 -141.868,37.769 z m -26.646,-418.784 c -24.622,0 -48.496,4.512 -70.63,14.854 -48.647,22.729 -84.902,64.756 -102.083,118.335 -19.216,59.937 -12.424,125.928 18.64,181.055 65,115.352 213.811,122.329 320.129,62.417 61.914,-34.888 105.652,-98.057 111.426,-160.942 2.979,-32.461 -2.91,-79.053 -47.893,-116.65 v 0 c -60.844,-50.856 -149.157,-99.069 -229.589,-99.069 z"
   id="path106" />
			</g>
			<g
   id="g108">
				<path
   style="fill:#d1cece"
   d="m 1401.44,2023.087 c -19.901,34.02 -49.978,64.285 -86.551,84.899 -106.977,60.266 -257.85,53.169 -323.523,-63.383 -60.304,-106.978 -26.698,-250.903 84.561,-302.871 18.7,-8.712 38.488,-13.33 58.877,-14.644 86.551,-5.632 183.015,48.251 243.995,99.205 62.03,51.817 61.091,131.308 22.641,196.794 z"
   id="path107" />
				<path
   style="fill:#171717"
   d="m 1174.267,2147.92 c -73.906,0 -144.993,-30.947 -185.081,-102.095 -31.748,-56.323 -38.694,-123.76 -19.053,-185.015 17.61,-54.932 54.805,-98.027 104.734,-121.348 18.223,-8.486 38.333,-13.491 59.773,-14.873 86.445,-5.615 183.621,47.861 245.762,99.785 57.31,47.871 66.414,126.367 23.193,199.976 -20.552,35.127 -51.619,65.601 -87.478,85.811 -43.107,24.288 -93.095,37.759 -141.85,37.759 z m -26.86,-418.74 c -4.175,0 -8.315,0.132 -12.444,0.4 -20.818,1.343 -40.327,6.192 -57.983,14.414 -48.647,22.725 -84.905,64.751 -102.085,118.34 -19.216,59.937 -12.419,125.923 18.647,181.04 64.998,115.347 213.801,122.324 320.12,62.432 35.103,-19.78 65.51,-49.609 85.62,-83.984 v 0 c 41.917,-71.392 33.247,-147.388 -22.087,-193.608 -58.418,-48.814 -148.054,-99.034 -229.79,-99.034 z"
   id="path108" />
			</g>
			<g
   style="opacity:0.3"
   id="g109">
				<path
   style="fill:#171717"
   d="m 1401.44,2023.087 c -95.788,25.797 -203.479,2.779 -256.235,-90.794 -36.272,-64.397 -38.563,-142.161 -10.401,-205.206 86.551,-5.632 183.015,48.251 243.995,99.205 62.03,51.818 61.091,131.309 22.641,196.795 z"
   id="path109" />
			</g>
			<g
   id="g110">
				<path
   style="fill:#171717"
   d="m 1174.187,2160.435 c -78.042,0 -153.33,-32.891 -195.911,-108.452 -33.45,-59.36 -40.762,-130.435 -20.059,-195 18.687,-58.281 58.233,-104.043 111.35,-128.862 101.904,-47.603 235.454,16.929 318.87,86.646 v 0 c 39.644,33.135 58.857,79.907 54.104,131.694 -6.284,68.442 -53.494,136.978 -120.271,174.604 -44.966,25.337 -97.114,39.37 -148.083,39.37 z m -26.216,-418.877 c -22.976,0 -45.173,4.194 -65.688,13.779 -45.454,21.235 -79.355,60.591 -95.461,110.815 -18.157,56.626 -11.731,118.984 17.627,171.084 61.155,108.535 202.124,114.546 303.076,57.656 58.438,-32.925 99.692,-92.266 105.103,-151.177 2.708,-29.482 -2.634,-71.782 -43.452,-105.903 v 0 c -59.008,-49.315 -144.384,-96.254 -221.205,-96.254 z"
   id="path110" />
			</g>
			<g
   id="g112">
				<path
   style="fill:#d1cece"
   d="m 1746.384,1619.166 c 18.556,121.396 167.066,151.54 274.055,91.253 106.989,-60.287 179.052,-193.041 113.388,-309.572 -60.287,-106.99 -200.783,-152.807 -302.881,-84.562 -89.98,60.145 -99.396,205.836 -84.562,302.881 z"
   id="path111" />
				<path
   style="fill:#171717"
   d="m 1906.094,1743.052 c -30.049,0 -59.167,-6.069 -84.46,-18.379 -42.952,-20.908 -70.554,-58.242 -77.72,-105.132 v 0 c -15.872,-103.833 -2.966,-246.104 85.645,-305.337 45.808,-30.62 101.934,-40.103 158.035,-26.724 62.573,14.927 116.667,55.801 148.413,112.139 66.541,118.086 -5.881,251.865 -114.338,312.979 -35.8,20.171 -76.471,30.454 -115.575,30.454 z M 1748.855,1618.79 c 8.86,57.949 45.657,87.119 74.968,101.387 56.777,27.642 133.472,22.944 195.388,-11.933 106.316,-59.907 177.441,-190.811 112.439,-306.172 -31.064,-55.127 -83.994,-95.122 -145.217,-109.727 -54.736,-13.066 -109.458,-3.818 -154.097,26.021 -86.658,57.924 -99.131,198.036 -83.481,300.424 z"
   id="path112" />
			</g>
			<g
   id="g114">
				<path
   style="fill:#d1cece"
   d="m 2020.438,1710.415 c -40.328,22.755 -86.588,32.63 -129.545,29.552 -70.968,-4.957 -132.962,-45.172 -144.527,-120.796 -12.767,-83.584 -7.547,-203.254 51.667,-273.245 9.5,-11.302 20.427,-21.291 32.931,-29.626 102.096,-68.264 242.567,-22.454 302.871,84.561 65.675,116.514 -6.42,249.288 -113.397,309.554 z"
   id="path113" />
				<path
   style="fill:#171717"
   d="m 1906.43,1743.018 c -5.256,0 -10.496,-0.185 -15.715,-0.557 -79.819,-5.576 -136.079,-52.671 -146.819,-122.915 -13.357,-87.427 -6.648,-205.64 52.229,-275.239 9.885,-11.758 21.143,-21.88 33.452,-30.088 45.806,-30.625 101.914,-40.132 158.015,-26.743 62.568,14.922 116.667,55.806 148.42,112.158 30.632,54.346 33.535,117.583 8.174,178.062 -22.986,54.814 -67.644,103.979 -122.522,134.897 -35.153,19.834 -75.534,30.425 -115.234,30.425 z m 31.67,-456.455 c -37.903,0 -74.319,10.801 -105.747,31.816 -11.919,7.944 -22.82,17.754 -32.405,29.15 -57.8,68.325 -64.299,184.922 -51.111,271.265 10.369,67.798 64.868,113.276 142.229,118.677 43.691,3.154 89.18,-7.251 128.142,-29.233 v 0 c 53.931,-30.381 97.803,-78.667 120.366,-132.476 17.51,-41.758 30.352,-105.781 -7.917,-173.677 -31.074,-55.142 -84.006,-95.147 -145.227,-109.746 -16.193,-3.862 -32.395,-5.776 -48.33,-5.776 z"
   id="path114" />
			</g>
			<g
   style="opacity:0.3"
   id="g115">
				<path
   style="fill:#171717"
   d="m 1890.893,1739.967 c -70.968,-4.957 -132.962,-45.172 -144.527,-120.796 -12.767,-83.584 -7.547,-203.254 51.667,-273.245 66.011,10.401 128.193,51.93 163.226,114.149 56.4,100.068 11.266,212.04 -70.366,279.892 z"
   id="path115" />
			</g>
			<g
   id="g116">
				<path
   style="fill:#171717"
   d="m 1906.064,1755.523 c -31.943,0 -62.949,-6.47 -89.91,-19.595 -46.76,-22.759 -76.812,-63.423 -84.617,-114.492 v 0 c -16.428,-107.471 -2.437,-255.142 91.062,-317.637 48.743,-32.578 108.364,-42.695 167.9,-28.496 65.952,15.737 122.961,58.804 156.414,118.169 70.386,124.912 -5.283,265.899 -119.102,330.034 -37.643,21.211 -80.475,32.017 -121.747,32.017 z M 1761.23,1616.895 c 8.04,52.588 41.455,79.067 68.071,92.026 53.191,25.884 125.322,21.343 183.765,-11.587 100.955,-56.885 168.833,-180.586 107.676,-289.116 -29.358,-52.099 -79.37,-89.897 -137.214,-103.696 -51.296,-12.236 -102.524,-3.633 -144.233,24.248 -81.771,54.658 -93.158,189.375 -78.065,288.125 z"
   id="path116" />
			</g>
			<g
   id="g117">
				<path
   style="fill:#171717"
   d="m 1084.909,2279.766 c -13.118,0 -28.496,-3.77 -46.035,-11.313 -61.543,-26.47 -96.68,-85.293 -111.753,-116.807 -7.046,3.755 -13.63,4.565 -18.091,4.429 -20.288,-0.327 -36.843,-16.597 -44.856,-30.435 -93.352,-161.206 8.821,-353.379 9.866,-355.303 41.641,-76.758 100.63,-126.284 175.325,-147.197 157.129,-43.999 326.946,53.428 334.099,57.598 5.652,3.296 8.523,9.873 7.095,16.255 l -116.252,519.702 c -0.286,1.279 -0.737,2.515 -1.343,3.672 -13.105,25.117 -31.914,40.723 -55.898,46.377 -32.522,7.661 -66.614,-5.532 -87.583,-16.484 -2.72,7.383 -7.397,14.98 -15.366,20.801 -7.948,5.805 -17.709,8.705 -29.208,8.705 z M 932.485,2110.933 c 0.549,0 1.104,0.029 1.658,0.093 5.747,0.635 10.62,4.517 12.524,9.976 0.305,0.869 31.985,88.853 104.077,119.854 21.436,9.219 38.042,11.411 45.576,6.006 7.617,-5.474 6.704,-19.536 6.694,-19.673 -0.474,-5.845 2.49,-11.494 7.598,-14.37 5.112,-2.871 11.423,-2.573 16.167,0.859 0.437,0.317 46.057,32.681 83.469,23.813 14.78,-3.511 26.306,-13.12 35.188,-29.346 l 113.325,-506.611 c -37.295,-19.326 -176.731,-84.434 -301.428,-49.429 -66.511,18.662 -119.294,63.257 -156.89,132.559 -26.777,49.351 -80.818,204.106 -10.273,325.928 5.044,8.711 13.359,15.352 19.341,15.449 3.369,0.078 6.875,-2.642 10.225,-8.027 2.761,-4.434 7.603,-7.081 12.749,-7.081 z"
   id="path117" />
			</g>
			<g
   id="g119">
				<path
   style="fill:#a3b1b8"
   d="m 1498.558,1551.43 c 259.167,-146.037 608.943,-7.882 724.633,197.43 124.718,221.333 -32.358,429.938 -289.48,574.823 -257.122,144.885 -516.925,171.184 -641.643,-50.149 -115.689,-205.312 -52.676,-576.067 206.49,-722.104 z"
   id="path118" />
				<path
   style="fill:#171717"
   d="m 1574.236,2438.584 c -3.716,0 -7.397,-0.049 -11.062,-0.142 -121.956,-3.228 -213.901,-58.296 -273.281,-163.682 -57.729,-102.451 -71.777,-246.416 -37.576,-385.107 37.368,-151.538 124.385,-272.427 245.015,-340.4 l 1.228,2.178 -1.228,-2.178 c 259.102,-145.996 610.137,-10.859 728.04,198.384 59.382,105.381 58.857,212.554 -1.558,318.54 -53.235,93.394 -153.125,183.193 -288.875,259.683 -131.118,73.882 -255.533,112.724 -360.703,112.724 z m 163.623,-945.551 c -85.386,0 -166.672,20.342 -238.071,60.576 -119.419,67.29 -205.581,187.061 -242.617,337.246 -33.904,137.48 -20.044,280.083 37.078,381.455 58.457,103.74 148.982,157.954 269.058,161.133 106.506,2.847 234.214,-35.894 369.177,-111.938 134.961,-76.05 234.202,-165.195 286.987,-257.803 59.482,-104.351 60.002,-209.868 1.545,-313.613 -57.122,-101.367 -171.919,-187.095 -307.083,-229.312 -59.37,-18.545 -118.65,-27.744 -176.074,-27.744 z"
   id="path119" />
			</g>
			<g
   style="opacity:0.6"
   id="g120">
				<path
   style="fill:#e0e0e0"
   d="m 2256.058,1983.322 c 6.533,-60.529 -5.97,-123.386 -41.98,-187.258 -115.689,-205.318 -465.459,-343.462 -724.624,-197.434 -132.098,74.423 -213.242,207.271 -245.759,346.804 23.994,-156.167 107.916,-311.207 254.846,-394.003 259.202,-146.029 608.972,-7.885 724.661,197.433 45.435,80.657 53.471,159.623 32.856,234.458 z"
   id="path120" />
			</g>
			<g
   style="opacity:0.3"
   id="g121">
				<path
   style="fill:#171717"
   d="m 2242.24,2023.237 c -47.875,114.525 -161.949,217.823 -308.542,300.431 -257.099,144.902 -516.901,171.186 -641.64,-50.128 -85.349,-151.51 -73.446,-393.102 42.844,-568.006 -75.586,164.052 -74.31,361.673 -0.713,492.307 124.738,221.314 384.541,195.03 641.64,50.128 113.511,-63.946 207.534,-140.322 266.411,-224.732 z"
   id="path121" />
			</g>
			<g
   id="g122">
				<path
   style="fill:#e0e0e0"
   d="m 1996.958,2104.546 c 35.67,63.303 -9.277,131.899 -87.551,176.005 -78.274,44.106 -160.232,47.02 -195.902,-16.283 -35.67,-63.303 14.224,-123.12 92.498,-167.226 78.273,-44.106 155.285,-55.799 190.955,7.504 z"
   id="path122" />
			</g>
			<g
   id="g123">
				<path
   style="fill:#171717"
   d="m 1574.206,2451.104 c -3.813,0 -7.6,-0.049 -11.365,-0.146 -126.663,-3.354 -222.166,-60.566 -283.857,-170.049 -59.255,-105.161 -73.77,-252.544 -38.823,-394.248 38.203,-154.927 127.354,-278.628 251.025,-348.315 v 0 c 265.142,-149.399 624.409,-11.03 745.093,203.145 61.692,109.482 61.157,220.811 -1.587,330.889 -54.358,95.361 -155.886,186.787 -293.608,264.39 -132.996,74.939 -259.534,114.334 -366.878,114.334 z m -68.274,-886.587 c -116.377,65.576 -200.405,182.534 -236.606,329.331 -33.159,134.468 -19.766,273.652 35.83,372.314 56.145,99.644 143.11,151.714 258.479,154.766 104.231,2.686 229.712,-35.396 362.703,-110.332 132.988,-74.937 230.591,-162.451 282.256,-253.091 57.151,-100.264 57.661,-201.626 1.514,-301.27 -55.593,-98.662 -167.71,-182.217 -299.907,-223.506 -144.313,-45.077 -287.889,-33.788 -404.269,31.788 z m -7.373,-13.086 h 0.049 z"
   id="path123" />
			</g>
			<g
   id="g124">
				<path
   style="fill:#171717"
   d="m 2036.058,1815.984 c 10.497,7.776 16.77,19.229 20.946,30.896 4.02,11.821 5.608,24.551 4.46,37.368 -1.183,12.773 -5.139,25.745 -12.228,37.092 -6.992,11.375 -16.836,21.025 -27.954,27.925 -11.058,6.775 -23.749,11.619 -37.133,12.993 -13.35,1.404 -26.98,-0.811 -38.892,-5.972 -23.823,-10.447 -41.361,-30.803 -48,-53.857 -0.773,-2.688 0.778,-5.491 3.463,-6.265 2.114,-0.61 4.301,0.22 5.514,1.912 l 0.122,0.173 c 12.263,17.148 29.279,29.875 47.327,34.688 18.042,5.022 36.022,1.245 51.595,-8.879 15.273,-10.093 25.602,-25.107 29.734,-43.662 2.086,-9.197 2.729,-19.082 1.829,-28.953 -0.853,-9.885 -3.315,-19.722 -7.916,-28.433 l -0.328,-0.62 c -1.3,-2.463 -0.358,-5.515 2.104,-6.814 1.771,-0.935 3.849,-0.708 5.357,0.408 z"
   id="path124" />
			</g>
			<g
   id="g125">
				<path
   style="fill:#171717"
   d="m 1467.09,2135.232 c 5.068,8.447 12.207,15.649 20.22,21.499 7.976,5.884 16.766,10.454 25.714,13.435 18.01,6.074 36.204,5.02 52.749,-2.817 16.727,-8.079 29.272,-21.499 34.323,-39.534 5.233,-17.932 3.159,-39.08 -5.156,-58.452 l -0.081,-0.186 c -1.102,-2.568 0.085,-5.544 2.655,-6.648 2.02,-0.867 4.299,-0.31 5.714,1.216 16.281,17.622 24.609,43.169 21.205,68.958 -1.757,12.864 -6.923,25.669 -15.039,36.36 -8.109,10.735 -18.826,19.082 -30.349,25.032 -11.66,5.935 -25.015,9.358 -38.368,9.446 -13.376,0.186 -26.521,-3.149 -38.06,-8.752 -11.559,-5.659 -21.624,-13.611 -29.653,-23.174 -7.816,-9.617 -14.364,-20.916 -15.579,-33.921 -0.259,-2.773 1.779,-5.232 4.552,-5.491 1.992,-0.186 3.823,0.815 4.791,2.422 z"
   id="path125" />
			</g>
			<g
   id="g126">
				<path
   style="fill:#171717"
   d="m 1704.699,1930.062 c 5.905,-5.999 13.465,-10.259 21.655,-12.202 51.854,-12.305 126.842,32.868 164.914,78.327 35.094,41.902 72.608,116.428 -35.206,177.179 -107.813,60.751 -152.129,-9.942 -169.792,-61.666 -19.162,-56.115 -18.957,-143.658 18.429,-181.638 z"
   id="path126" />
			</g>
			<g
   id="g128">
				<path
   style="fill:#a3b1b8"
   d="m 1360.677,1719.657 c -20.706,-69.964 43.017,-310.958 136.031,-271.631 13.69,5.788 41.856,29.589 24.65,65.044 -15.693,32.339 -26.492,66.945 -23.152,59.457 16.139,-36.189 98.009,-148.441 147.844,-104.955 23.737,20.713 6.856,66.881 -19.11,89.312"
   id="path127" />
				<path
   style="fill:#171717"
   d="m 1360.678,1722.159 c -1.079,0 -2.075,-0.703 -2.397,-1.792 -15.779,-53.311 17.361,-208.276 76.433,-261.06 20.264,-18.115 41.443,-22.69 62.969,-13.589 7.715,3.267 22.456,13.267 28.757,30.039 4.575,12.178 3.623,25.098 -2.834,38.403 -5.869,12.095 -10.969,24.311 -14.905,34.507 21.76,-34.111 63.12,-83.906 100.979,-92.246 14.512,-3.193 27.302,-0.083 38.013,9.263 8.027,7.007 12.256,17.261 12.224,29.663 -0.054,21.455 -12.942,47.534 -31.343,63.423 -1.038,0.908 -2.62,0.791 -3.525,-0.254 -0.903,-1.045 -0.786,-2.627 0.259,-3.525 17.383,-15.015 29.558,-39.546 29.609,-59.658 0.027,-10.908 -3.606,-19.858 -10.51,-25.879 -9.451,-8.252 -20.769,-10.986 -33.65,-8.149 -46.238,10.186 -98.289,85.381 -110.269,112.241 -0.469,1.05 -1.05,2.354 -2.622,2.5 -0.894,0.132 -1.794,-0.332 -2.307,-1.074 -2.178,-3.14 14.67,-44.697 23.55,-62.998 5.833,-12.017 6.726,-23.613 2.651,-34.458 -5.718,-15.215 -19.524,-24.438 -26.025,-27.188 -19.578,-8.281 -38.989,-3.999 -57.688,12.705 -57.925,51.763 -90.435,203.667 -74.971,255.918 0.391,1.323 -0.364,2.715 -1.687,3.105 -0.237,0.069 -0.476,0.103 -0.711,0.103 z"
   id="path128" />
			</g>
			<g
   style="opacity:0.6"
   id="g129">
				<path
   style="fill:#e0e0e0"
   d="m 1498.206,1567.526 -3.187,16.701 c -0.991,5.196 2.385,10.221 7.57,11.267 v 0 c 9.932,2.003 19.866,-3.155 24.069,-12.374 11.292,-24.771 40.072,-73.696 83.341,-88.119 0,0 35.118,-22.07 41.309,22.715 l 6.108,-46.745 -15.963,-18.431 -37.949,3.243 -46.004,26.717 -18.86,24.802 z"
   id="path129" />
			</g>
			<g
   style="opacity:0.6"
   id="g131">
				<g
   id="g130">
					<path
   style="fill:#e0e0e0"
   d="m 1521.708,1473.025 c 0.338,0.144 0.719,0.347 1.073,0.51 -6.243,-13.394 -18.416,-22.273 -26.073,-25.51 -93.014,-39.326 -156.736,201.667 -136.03,271.631 l 21.117,-12.908 c 1.474,-93.674 59.836,-267.581 139.913,-233.723 z"
   id="path130" />
				</g>
			</g>
			<g
   id="g132">
				<path
   style="fill:#171717"
   d="m 1360.671,1734.683 c -6.482,0 -12.461,-4.229 -14.395,-10.762 -16.98,-57.368 16.877,-217.461 80.095,-273.95 30.137,-26.934 58.059,-23.457 76.187,-15.781 11.87,5.02 28.313,17.769 35.601,37.163 1.895,5.044 3.04,10.234 3.445,15.513 20.051,-20.518 42.998,-37.739 65.383,-42.671 18.333,-4.043 35.264,0.122 48.938,12.056 10.842,9.463 16.553,22.993 16.511,39.126 -0.063,25.21 -14.402,54.497 -35.679,72.871 -6.272,5.425 -15.762,4.731 -21.184,-1.548 -5.422,-6.279 -4.729,-15.767 1.55,-21.187 14.368,-12.407 25.232,-33.994 25.273,-50.21 0.017,-7.275 -2.075,-12.798 -6.223,-16.416 -6.47,-5.649 -13.687,-7.344 -22.725,-5.357 -39.363,8.672 -89.648,78.482 -101.528,105.112 -3.506,7.866 -9.58,9.561 -12.886,9.868 -5.405,0.498 -10.679,-1.948 -13.767,-6.406 -5.02,-7.241 -2.964,-12.783 4.685,-33.398 3.835,-10.332 10.051,-26.04 17.891,-42.197 4.338,-8.936 5.056,-16.978 2.195,-24.59 -3.887,-10.352 -13.828,-17.798 -19.182,-20.063 -9.531,-4.028 -24.509,-7.329 -44.468,10.513 -53.269,47.603 -85.898,193.73 -71.309,243.027 2.354,7.954 -2.185,16.309 -10.139,18.667 -1.42,0.42 -2.858,0.62 -4.269,0.62 z"
   id="path131" />
			</g>
			<g
   style="opacity:0.7"
   id="g133">
				<path
   style="fill:#e0e0e0"
   d="m 1714.215,2028.968 c -18.857,19.267 -0.833,70.897 18.129,91.644 19.64,21.489 35.408,30.601 46.903,19.674 16.052,-15.259 6.516,-37.56 -10.668,-58.418 -12.152,-14.75 -31.093,-76.678 -54.364,-52.9 z"
   id="path132" />
				<path
   style="fill:#171717"
   d="m 1768.237,2147.422 c -0.222,0 -0.444,-0.01 -0.669,-0.01 -9.951,-0.352 -21.729,-8.33 -37.07,-25.117 -18.369,-20.098 -38.63,-74.063 -18.071,-95.073 v 0 c 4.624,-4.722 9.514,-6.748 14.563,-5.972 13.164,1.997 23.584,22.349 32.778,40.303 3.958,7.725 7.695,15.024 10.74,18.721 27.402,33.267 20.813,51.982 10.461,61.826 -3.721,3.535 -8,5.322 -12.732,5.322 z m -52.236,-116.704 c -17.192,17.568 -0.825,67.402 18.188,88.208 14.177,15.508 25.154,23.193 33.555,23.486 3.679,0.225 6.855,-1.157 9.78,-3.936 12.817,-12.188 9.16,-30.698 -10.874,-55.02 -3.391,-4.116 -7.073,-11.304 -11.333,-19.629 -8.218,-16.045 -18.447,-36.021 -29.08,-37.632 -3.4,-0.526 -6.75,0.959 -10.236,4.523 z"
   id="path133" />
			</g>
			<g
   id="g135">
				<path
   style="fill:#a3b1b8"
   d="m 2262.536,2493.188 c 124.674,5.998 203.736,-50.153 238.673,71.642 5.685,19.819 5.337,48.038 20.865,92.68 36.002,103.507 189.549,127.345 266.879,83.703 147.026,-82.975 -30.57,-219.084 -30.57,-219.084 0,0 53.861,-371.205 -310.024,-234.314"
   id="path134" />
				<path
   style="fill:#171717"
   d="m 2699.56,2764.571 c -28.079,0 -57.158,-4.98 -83.862,-15.068 -47.715,-18.022 -81.804,-50.4 -95.984,-91.172 -10.088,-28.999 -13.489,-50.884 -16.221,-68.462 -1.455,-9.37 -2.712,-17.461 -4.688,-24.351 -24.661,-85.952 -71.606,-81.245 -142.651,-74.082 -27.62,2.773 -58.923,5.942 -93.738,4.248 -1.379,-0.063 -2.444,-1.235 -2.378,-2.617 0.068,-1.377 1.284,-2.49 2.617,-2.373 34.446,1.631 65.554,-1.475 92.998,-4.233 70.916,-7.144 122.153,-12.285 147.957,77.681 2.063,7.188 3.342,15.425 4.824,24.961 2.7,17.378 6.062,39.014 16.001,67.588 13.687,39.346 46.724,70.645 93.027,88.135 57.334,21.655 125.754,19.326 170.261,-5.791 35.647,-20.117 54.758,-45.098 56.804,-74.253 4.839,-68.931 -86.741,-139.956 -87.666,-140.669 -0.718,-0.547 -1.084,-1.445 -0.952,-2.339 0.229,-1.597 22.134,-160.469 -63.765,-229.57 -52.515,-42.236 -134.243,-42.925 -242.905,-2.051 -1.292,0.498 -2.734,-0.166 -3.22,-1.46 -0.488,-1.289 0.166,-2.734 1.458,-3.218 110.449,-41.548 193.823,-40.586 247.813,2.842 83.645,67.3 67.786,216.362 65.757,232.72 11.245,8.857 93.252,75.952 88.469,144.097 -2.17,30.933 -22.134,57.261 -59.336,78.257 -24.899,14.051 -57.041,21.18 -90.62,21.18 z"
   id="path135" />
			</g>
			<g
   style="opacity:0.6"
   id="g136">
				<path
   style="fill:#e0e0e0"
   d="m 2823.395,2720.262 c 24.819,-157.921 -105.866,-129.097 -105.866,-129.097 0,0 85.551,-360.665 -255.168,-290.214 -7.661,1.584 -13.462,-6.707 -9.013,-13.142 v 0 c 363.889,-136.866 310.043,234.307 310.043,234.307 0,0 150.159,115.087 60.004,198.146 z"
   id="path136" />
			</g>
			<g
   style="opacity:0.3"
   id="g137">
				<path
   style="fill:#171717"
   d="m 2788.956,2741.214 c -77.351,43.633 -230.89,19.789 -266.899,-83.697 -15.508,-44.646 -15.17,-72.883 -20.84,-92.671 -34.958,-121.809 -113.999,-65.673 -238.662,-71.644 l 59.365,-65.636 c 102.922,-3.98 169.497,-37.437 200.738,71.531 5.67,19.826 5.332,48.025 20.877,92.671 36.01,103.523 189.548,127.367 266.862,83.697 15.357,-8.674 27.186,-17.911 36.01,-27.523 4.392,32.33 -8.637,65.711 -57.451,93.272 z"
   id="path137" />
			</g>
			<g
   id="g138">
				<path
   style="fill:#171717"
   d="m 2263.258,2478.186 c 19.252,0.842 38.616,0.369 58.181,-1.172 19.572,-1.416 39.292,-3.877 59.789,-5.508 10.269,-0.779 20.76,-1.34 31.636,-1.016 10.85,0.342 22.197,1.582 33.573,5.042 11.364,3.347 22.535,9.468 31.564,17.559 9.106,8.054 16.089,17.673 21.603,27.488 5.54,9.858 9.432,20.017 12.936,30.151 1.553,5.105 3.284,9.983 4.584,15.796 1.262,5.52 2.117,10.735 2.915,15.762 2.977,20.02 6.268,38.413 11.877,56.802 1.355,4.573 2.871,9.136 4.407,13.64 1.675,4.099 3.087,8.313 5.176,12.227 1.783,4.058 4.204,7.786 6.398,11.633 2.55,3.635 4.935,7.383 7.85,10.774 5.585,6.941 11.918,13.369 18.997,19.031 7.023,5.706 14.55,10.93 22.643,15.325 32.23,17.869 70.522,26.023 107.919,25.12 18.719,-0.435 37.325,-3.435 54.601,-9.167 8.645,-3.003 16.67,-6.536 24.421,-11.248 7.926,-4.727 15.519,-9.858 22.046,-15.752 l 4.895,-4.414 4.274,-4.788 c 3.098,-3.059 5.024,-6.702 7.563,-10.022 4.08,-7.095 6.989,-14.578 8.329,-22.468 2.297,-15.835 -1.555,-33.125 -9.562,-49.375 -7.803,-16.328 -19.117,-31.667 -31.598,-45.974 -6.306,-7.134 -12.969,-14.028 -19.912,-20.64 -6.849,-6.543 -14.377,-13.103 -21.398,-18.569 -4.497,-3.503 -6.566,-8.967 -5.941,-14.241 l 0.035,-0.276 c 1.134,-9.358 1.86,-19.885 2.137,-29.937 0.24,-10.161 0.31,-20.352 -0.22,-30.486 -0.8,-20.273 -3.022,-40.459 -7.434,-59.924 -4.487,-19.414 -10.541,-38.328 -19.626,-55.391 -8.989,-17.097 -21.03,-32.109 -35.721,-43.862 -14.663,-11.79 -32.091,-20.205 -51.007,-24.915 -4.673,-1.326 -9.598,-1.89 -14.399,-2.9 -2.429,-0.391 -4.807,-1.055 -7.288,-1.235 l -7.44,-0.583 -7.455,-0.603 c -2.487,-0.227 -4.973,-0.503 -7.502,-0.378 l -15.15,0.1 c -5.061,-0.178 -10.138,0.596 -15.222,0.996 l -15.293,1.355 c -10.14,1.724 -20.37,3.125 -30.546,5.105 -10.112,2.312 -20.35,4.287 -30.463,6.892 -10.029,2.903 -20.137,5.659 -30.306,8.362 l -0.267,0.071 c -2.673,0.71 -5.415,-0.879 -6.125,-3.552 -0.648,-2.437 0.616,-4.929 2.866,-5.889 9.791,-4.197 19.646,-8.337 29.578,-12.334 10.002,-3.806 20.261,-7.012 30.437,-10.554 10.295,-3.164 20.886,-5.481 31.375,-8.257 l 16.11,-2.803 c 5.4,-0.828 10.742,-2.017 16.266,-2.261 l 16.498,-1.316 c 5.502,-0.544 11.116,0 16.685,0.01 l 8.38,0.208 c 2.795,0.056 5.592,0.618 8.394,0.908 5.59,0.815 11.241,1.204 16.807,2.422 22.401,4.175 44.309,13.779 63.148,27.639 18.881,13.936 33.885,32.529 44.99,52.517 11.105,20.071 18.73,41.555 23.467,63.318 4.861,21.765 7.197,43.757 8.01,65.671 0.442,10.967 0.22,21.914 -0.183,32.856 -0.477,11.052 -1.283,21.614 -2.847,33.203 l -5.905,-14.514 c 8.701,6.941 16.132,13.733 23.75,21.03 7.511,7.249 14.731,14.814 21.635,22.732 13.678,15.925 26.37,33.157 35.787,53.054 9.561,19.524 15.66,42.917 12.14,66.941 -1.948,11.909 -6.377,23.311 -12.386,33.525 -3.391,4.734 -6.454,9.888 -10.442,13.97 -1.912,2.134 -3.795,4.321 -5.758,6.387 l -6.234,5.674 c -8.357,7.505 -17.454,13.628 -26.711,19.146 -9.363,5.686 -19.756,10.295 -30.033,13.821 -20.75,6.892 -42.142,10.227 -63.439,10.747 -42.511,0.945 -85.371,-7.966 -123.368,-28.916 -9.502,-5.181 -18.527,-11.392 -27.028,-18.308 -8.55,-6.863 -16.384,-14.763 -23.346,-23.413 -3.599,-4.233 -6.654,-8.911 -9.812,-13.501 -2.813,-4.819 -5.795,-9.553 -8.087,-14.658 -2.596,-4.961 -4.452,-10.239 -6.508,-15.43 -1.697,-4.971 -3.336,-9.912 -4.828,-14.941 -6.125,-19.949 -9.869,-41.104 -12.764,-60.686 -0.768,-4.861 -1.554,-9.531 -2.529,-13.774 -0.856,-3.975 -2.455,-8.56 -3.811,-13.035 -3.035,-8.767 -6.361,-17.383 -10.667,-24.998 -8.597,-15.408 -20.092,-26.458 -35.763,-30.962 -15.677,-4.768 -34.74,-4.248 -54.052,-2.788 -19.432,1.538 -39.479,4.031 -59.861,5.513 -20.36,1.604 -41.11,2.141 -61.876,1.223 -8.286,-0.366 -14.707,-7.383 -14.34,-15.669 0.366,-8.289 7.382,-14.707 15.669,-14.341 z"
   id="path138" />
			</g>
			<g
   id="g139">
				<path
   style="fill:#171717"
   d="m 2665.979,2614.719 c 18.882,-13.157 35.985,-27.712 49.364,-43.789 6.792,-7.988 11.912,-16.719 16.725,-25.139 4.869,-8.518 7.71,-17.434 11.57,-26.516 l 0.8,-1.882 c 3.239,-7.62 12.042,-11.172 19.663,-7.932 6.26,2.659 9.769,9.092 9.03,15.522 -0.381,3.281 -0.959,6.56 -1.592,9.839 -0.355,1.626 -0.659,3.276 -1.073,4.89 -0.499,1.584 -1.118,3.13 -1.682,4.697 -1.179,3.108 -2.239,6.304 -3.755,9.248 -1.575,2.91 -3.143,5.828 -4.869,8.645 -7.073,11.108 -16.171,20.596 -26.147,28.247 -9.985,7.676 -20.757,13.823 -31.906,18.604 -11.238,4.639 -22.694,8.206 -34.736,9.626 -1.202,0.142 -2.292,-0.718 -2.434,-1.919 -0.099,-0.83 0.281,-1.606 0.92,-2.056 z"
   id="path139" />
			</g>
			<g
   id="g140">
				<ellipse
   style="fill:#171717"
   cx="1919.354"
   cy="2196.635"
   rx="32.696999"
   ry="36.634998"
   id="ellipse139" />
			</g>
		</g>
		<g
   id="g145">
			<g
   id="g142">
				<path
   style="fill:#e0e0e0"
   d="m 1169.155,1337.198 c -5.457,0 -10.481,-3.096 -12.917,-8.037 -2.571,-5.215 -1.758,-11.46 2.063,-15.845 l 51.973,-59.58 -45.276,2.847 c -7.915,0.493 -14.785,-5.532 -15.283,-13.477 -0.5,-7.939 5.535,-14.785 13.477,-15.283 l 79.731,-5.015 c 5.725,-0.405 11.255,2.793 13.826,8.008 2.571,5.215 1.758,11.46 -2.063,15.845 l -51.973,59.58 45.276,-2.847 c 7.869,-0.542 14.783,5.532 15.283,13.477 0.5,7.939 -5.535,14.785 -13.477,15.283 l -79.731,5.015 c -0.304,0.019 -0.606,0.029 -0.909,0.029 z"
   id="path141" />
			</g>
			<g
   id="g143">
				<path
   style="fill:#e0e0e0"
   d="m 940.964,1203.104 c -5.456,0 -10.481,-3.096 -12.917,-8.037 -2.571,-5.215 -1.758,-11.462 2.065,-15.842 l 101.982,-116.917 -98.682,6.204 c -7.91,0.498 -14.785,-5.532 -15.283,-13.477 -0.5,-7.942 5.535,-14.785 13.477,-15.283 l 133.137,-8.369 c 5.737,-0.381 11.252,2.791 13.826,8.008 2.571,5.215 1.758,11.462 -2.065,15.842 l -101.982,116.917 98.682,-6.204 c 7.9,-0.549 14.78,5.535 15.283,13.477 0.5,7.942 -5.535,14.785 -13.477,15.283 l -133.137,8.369 c -0.303,0.019 -0.606,0.029 -0.909,0.029 z"
   id="path142" />
			</g>
			<g
   id="g144">
				<path
   style="fill:#e0e0e0"
   d="m 1158.098,1013.921 c -5.825,0 -11.189,-3.303 -13.792,-8.579 -2.744,-5.566 -1.875,-12.239 2.205,-16.917 l 150.818,-172.898 -150.139,9.436 c -8.433,0.576 -15.781,-5.908 -16.316,-14.387 -0.535,-8.479 5.908,-15.784 14.387,-16.316 l 186.926,-11.75 c 6.184,-0.422 12.017,2.979 14.761,8.547 2.744,5.566 1.875,12.239 -2.205,16.917 l -150.818,172.898 150.139,-9.436 c 8.45,-0.513 15.784,5.908 16.316,14.387 0.535,8.479 -5.908,15.784 -14.387,16.316 l -186.926,11.75 c -0.322,0.023 -0.647,0.032 -0.969,0.032 z"
   id="path143" />
			</g>
		</g>
	</g>
</g>
</svg>
